<?xml version="1.0" encoding="UTF-8"?><svg id="Capa_1" xmlns="http://www.w3.org/2000/svg" width="1131" height="474" viewBox="0 0 1131 474"><g><polygon points="51.1 450.2 337.8 318.2 331.1 300.5 46.2 437.1 51.1 450.2" fill="#be1622"/><polygon points="584.1 253.7 96 460.6 90.9 447.2 576.2 232.7 584.1 253.7" fill="#be1622"/><polygon points="172.9 465.5 701.7 262.9 689.7 231.3 165.3 445.4 172.9 465.5" fill="#be1622"/><polygon points="530.5 413.5 89.9 553 85.2 540.6 523.3 394.5 530.5 413.5" fill="#be1622"/><polygon points="143 511.6 619.5 347.5 608.4 318 135.7 492.4 143 511.6" fill="#be1622"/><polygon points="97.9 574.2 401.3 486.5 394.6 468.8 93 561.1 97.9 574.2" fill="#be1622"/></g><g><polygon points="31.6 465 301.2 342.9 294.7 325.8 26.8 452.3 31.6 465" fill="#e6332a"/><polygon points="529.5 286.2 74.4 475.7 69.5 462.8 521.9 266.1 529.5 286.2" fill="#e6332a"/><polygon points="147.4 481.7 637.8 297.3 626.4 267.1 140 462.2 147.4 481.7" fill="#e6332a"/><polygon points="481.9 437.3 69.4 565.1 64.8 553 475 419 481.9 437.3" fill="#e6332a"/><polygon points="119.4 525.7 563.4 375.9 552.8 347.8 112.4 507.1 119.4 525.7" fill="#e6332a"/></g><g><polygon points="317.7 350.2 751.7 159.6 744.1 139.4 312.3 335.8 317.7 350.2" fill="#e94e1b"/><polygon points="1142.6 44.8 379.9 356.8 374.3 342.1 1133.3 20.1 1142.6 44.8" fill="#e94e1b"/><polygon points="489.4 353.5 1330.6 37.4 1316.5 0 480.9 331.2 489.4 353.5" fill="#e94e1b"/><polygon points="1033.1 247.2 360.3 463 355.1 449.3 1024.8 225.2 1033.1 247.2" fill="#e94e1b"/><polygon points="440.7 409.9 1184 154.5 1171 120 432.7 388.7 440.7 409.9" fill="#e94e1b"/><polygon points="369 486.2 823.9 350.8 816.3 330.6 363.6 471.8 369 486.2" fill="#e94e1b"/></g><g><polygon points="568.9 291.9 1079.2 87.9 1072 68.7 563.7 278 568.9 291.9" fill="#f39200"/><polygon points="1523.2 -36.8 640.5 295.6 635.1 281.4 1514.5 -59.9 1523.2 -36.8" fill="#f39200"/><polygon points="766.9 287.4 1730.3 -50.3 1717.1 -85.3 758.8 265.9 766.9 287.4" fill="#f39200"/><polygon points="1389.1 161.1 610 400.8 605 387.6 1381.3 140.4 1389.1 161.1" fill="#f39200"/><polygon points="706.8 344.8 1562.2 66.4 1550 34 699.1 324.4 706.8 344.8" fill="#f39200"/><polygon points="618.5 423.1 1148 269.9 1140.7 250.7 613.3 409.3 618.5 423.1" fill="#f39200"/></g></svg>