<?xml version="1.0" encoding="UTF-8"?><svg id="Capa_1" xmlns="http://www.w3.org/2000/svg" width="1095.8" height="349.3" viewBox="0 0 1095.8 349.3"><g><path d="M256.5-23.1c-1.2,4.3-2.4,8.7-3.6,13,4,4.2,9.5,5.1,14.3,7.4,10.4,4.7,21,9.1,31.6,13.4,8.6,3.5,17.1,7.1,25.7,10.5,10.1,4.1,20.3,8,30.4,12.1,6.4,2.6,12.9,5.1,19.4,7.6,13.1,5,26.1,10,39.3,14.7,9.1,3.2,18,6.7,27.1,9.8,7.3,2.5,14.7,4.7,21.7,7.9,1.3,.4,2.7,.8,4,1.1,3,1,6.2,1.2,8.9,3.1,1.3,.7,2.6,1.1,4,1.5,16,4.6,31.6,10.4,47.5,15.5,6.7,2.2,13.5,3.9,20.1,6.4,12.3,4.5,24.9,7.8,37.5,11.2,2,.6,2.8,2.1,3.6,4,1.4,1.7,3.3,2,5.1,2.6,39.4,10.9,78.9,21.9,118.3,32.7,2,.5,4.1,1.9,6.2-.5-.9-2.7-3.2-2.7-5.1-3.2-10.8-3.1-21.6-6-32.3-9-1.6-.4-3.3-.5-4.5-2.1,.4-1.8,1.4-1.2,2.2-1.2,1.3,.1,2.5,.5,3.7,.9,22.1,6.8,44.8,11.6,67.2,17.4,15.3,3.9,30.8,7.1,46.1,10.9,1.4,.3,2.8,.7,4.2,0,2.7-2.1,.9-3.5-.2-4.7-3.2-3.5-6.6-6.8-9.8-10.1-.5-.4-1.1-.6-1.7-.8-2.9-.3-5.7-.7-8.4-1.7-5-1.2-9.8-3.1-14.9-3.8-1.1,.1-2.1,0-3.1-.3-14.9-4.8-30.6-6.9-45.5-11.6-8.7-2.2-17.2-5.1-26.1-6.9-1.7,.3-3.3-.2-4.9-.7-23.4-6.5-46.9-13-70.3-19.5-1.5-.4-3-.7-4.2-1.8-1.7-1-3.6-1.4-5.5-1.9-20.1-4.9-39.7-11.8-59.5-17.7-13.5-4.1-26.9-8.6-40.3-13-16.3-5.4-32.6-10.9-48.8-16.6-12.4-4.3-24.7-8.6-37-13.2-14.6-5.6-29.3-11-43.9-16.7-10.6-4.2-21.4-8-32-12.3-11.4-4.6-22.8-9.2-34.2-14-10.3-4.3-20.7-8.6-31-12.9-5.5-2.3-10.9-4.6-16.3-7-1.7-.7-3.3-1.7-5.2-.5Z" fill="#f9b233"/><path d="M240.6,34.3c2.1,2.6,5.3,2.5,7.9,3.8,3.1,1.5,6.2,3,9.5,4.1,3.4,1.1,6.6,2.7,9.9,4.3,2.9,1.4,5.9,2.5,8.9,3.6,6.2,2.3,12.3,5.2,18.5,7.6,6.1,2.3,12.2,4.6,18,7.6,2.8,1.5,6,2.3,9,3.4,4.2,1.5,8.2,3.6,12.5,4.9,3.8,1.1,7.3,3,11,4.6,.8,.4,1.6,.8,2.5,1,8.5,2.1,16.3,6.3,24.5,9,7,2.3,13.9,5.2,20.9,7.7,8.2,2.9,16.4,5.9,24.6,8.8,7.7,2.7,15.5,5.5,23.1,8.4,5.6,2.2,11.7,3.1,17.1,5.7,6.1,3,12.8,3.7,18.8,6.8,4.6,2.3,10,2.5,14.6,4.7,4.2,2,8.8,2.6,13.1,4.3,9.8,3.8,20.3,5.8,30.1,9.5,8.9,3.4,18.2,5.3,27.2,8.3,31.8,10.6,64.5,18.4,96.6,27.8,3.2,.9,6.3,1.1,9.5-.9,4.1-2.5,8-2.5,12.2-1.3,11.1,3.3,22.1,6.8,33.5,9.1,12.5,2.5,24.5,6.8,37,9.2,7.8,1.5,15.3,4.3,23.2,5.5,7.3,1.1,14.1,3.8,21.4,4.9,5.5,.8,10.7,2.9,16.1,3.5,6.1,.7,11.7,3.1,17.6,3.9,5.3,.7,10.2,2.5,15.4,3.3,3.3,.5,6.5,1,10.5,2.1-2.4-4.4-5.2-6.9-8.6-8.3-1.5-.6-3.2-1-4.8-1.5-2.3-3.2-5.9-3.4-9.1-3.7-7.1-.8-13.9-2.7-20.8-4.3-16.6-3.9-33.3-7.4-49.9-11.4-21.3-5.1-42.8-9.8-63.9-15.8-1-.3-2-.4-3.1-.5-2.4,.3-4.6-.5-6.8-1.1-33.1-9.5-66.5-18-99.5-27.8-22.1-6.6-44.3-13.3-66.3-20.4-13.2-4.2-26.4-8.4-39.5-12.9-16.9-5.9-33.8-11.5-50.6-17.6-13.8-4.9-27.6-9.8-41.4-14.8-14.6-5.3-29.1-10.9-43.6-16.5-14.6-5.7-29.2-11.6-43.8-17.4-18.2-7.3-36.2-14.9-54.2-22.5-1.8-.7-3.5-1.9-5.6-.6-1.1,4-2.2,8-3.3,12Z" fill="#f9b233"/><path d="M270.6-74.1c-1.4,4.9-2.7,9.9-4.1,14.8,2.9,4.3,7.7,4.8,11.7,6.6,19.7,8.9,39.8,17.2,59.8,25.4,16.9,7,33.9,13.6,50.9,20.3,2.2,.9,4.4,1.4,6.8-.2,1.8-1.2,3.6-.9,5.3-.3,11.9,4.6,23.8,9,35.8,13.4,9.9,3.7,19.9,7,29.8,10.6,12.8,4.7,25.8,8.7,38.6,13.5,6,2.2,12.2,4.1,18.3,6,10.7,3.3,21.1,7.5,32,10.2,6.7,1.6,12.9,5.2,19.8,6.4,2.5,.3,4.7,1.4,7.2,1.6,1.6,0,3.1-.6,4.6-1,.5-.1,.9-.3,1.3-.5,9.4-3.2,18.8-6.6,28.2-9.8,1.9-.6,4.8-1,5-3.4,.2-2.6-2.7-2.5-4.4-3.1-12.4-4.6-25.3-7.6-37.9-11.6-15-4.8-30-9.5-45-14.5-9.6-3.2-19.2-6.2-28.8-9.7-.9-.3-1.8-.4-2.8-.3-5.4,1.1-10.7,2.4-16,4.2-6.4,2.2-12.1,.7-17.8-1.5-9.6-3.8-19.3-7.2-28.9-10.7-12.4-4.4-24.6-9.1-36.8-13.8-10.3-3.9-20.7-7.7-31-11.9-14.6-6.1-29.3-12-44-17.9-18-7.1-35.4-15.6-53.4-22.5-1.3-.5-2.6-1.2-4.1-.3Z" fill="#f9b233"/><path d="M583.6,53.3c-2.5-.6-5-1.3-7.5-1.9-.8,.7,1.5,2-.7,2.7-3.3,1-6.4,1.9-9.7,.9-12.4-4.1-25-7.7-37.3-12.2-6.4-2.3-13-4.2-19.4-6.3-12.9-4.2-25.8-8.7-38.7-13.1-13.7-4.8-27.3-9.9-40.9-14.8-15-5.5-29.9-11.1-44.8-16.8-15.1-5.8-30.2-11.8-45.2-17.9-18-7.3-35.9-14.9-53.8-22.5-4.9-2.1-9.7-4.1-14.5-6.5-1.7-.9-3.5-1.8-5.6-.5l-1,3.7c3.5,4.2,8.5,5,12.9,6.9,24.8,10.8,49.8,21.1,74.9,31.2,19.5,7.8,39.1,15.3,58.6,22.7,13.3,5.1,26.8,9.8,40.2,14.5,19.8,6.9,39.5,14,59.4,20.4,13.3,4.3,26.6,8.7,39.9,13,24.8,8,49.9,15.2,74.8,22.8,17.2,5.2,34.5,10.2,51.8,15.1,3.8,1.1,7.7,2.1,11.7,2.5,2,.2,4.1,.5,5.5,2.6,0,5.2,2.9,6.5,6.6,7.4,7.7,1.9,15.4,4,23,6.4,18.6,6,37.8,9.9,56.7,14.5,17.8,4.4,35.8,8.2,53.8,12,14.2,3,28.5,5.7,42.6,8.9,1.3,.3,2.5,.5,3.8-.5,1.2-2.6-.4-3.1-1.7-3.4-11-2.9-20.9-9.4-32.3-11.1-4.3-.6-8.8-1.8-13.4,.9-1.6,1-2.8,.3-3.5-1.4-.7-1.7-1.8-3.2-3.4-3.1-4.4,.3-8.1-2.1-12.2-3-.9-.2-2-.8-2.6-.2-3,3.1-4.1,1.6-5.1-1.7-.5-1.8-2-3.2-3.8-3.3-1.8-.1-3.4,.3-3.5,3.4,0,.7-3.9-1.7-4.2-3.2-.5-2.9,1.4-5.4,3.9-5,3.5,.7,7,1.8,10.4,2.8,3.3,.9,6.6,2.1,10.3,1.4,1.2-.2,2.3,.1,3.3,.8,8.4,5.6,18.1,6.3,27.7,6.9,3.7,.2,6.6,2.6,9.9,4.1,.8,.4,1.4,1.3,2.3,1.4,4.8,.1,8.9,2.5,13.3,3.9,1.4,.5,3.1,1,4.5-.6,1.2-1.4,2-3.3,1.8-5.2-.2-1.9-1.8-1.7-3-2.1-9.9-3.1-20.5-3.9-30.3-7.3-1.5-.5-3-.8-4.6-.8-3.9,0-7.4-1.7-11.1-2.6-2.2-.9-4.7-.7-6.9-1.5-1.9-.3-3.9,.2-5.4-1.5-.2-.4-.5-.8-.7-1.2-.4-.6-.8-1.2-1.4-1.6-9.3-1.4-18-5-27.4-6-.6,0-1.3-.2-1.9-.4-12.3-4.1-25.2-6.2-37.8-9.3-47.6-11.6-94.5-25.6-141.8-38.4-6.4-1.7-12.8-3.8-19-6.2-2.4-1-5-1.1-7.6-.8Z" fill="#f9b233"/><path d="M243.9,22.3c5.7,2.3,11.4,4.6,17.1,7,8.6,3.6,17.1,7.3,25.6,10.8,11.9,4.9,23.8,9.8,35.8,14.5,9.8,3.9,19.7,7.7,29.5,11.5,11.9,4.6,23.8,9.1,35.7,13.6,7.6,2.9,15.2,5.7,22.8,8.4,19.7,6.9,39.3,13.8,59,20.5,23.9,8.1,47.9,15.7,71.9,23.3,46.3,14.6,93.1,27.7,140.1,40.2,4.4,1.2,8.8,2.9,13.5,3.1-1-2.7-3.7-2-5.5-3.3,5.9-4.5,7.4-4.9,13.4-3.3,3.3,.9,6.6,2.1,10,2.6,1.1,.2,3.1,1.3,3-2.1-4.8-3.1-10.5-3.2-15.7-5.1-32.4-7-64.2-16.6-96-25.7-25.8-7.4-51.4-15.5-77-23.5-13-4.1-25.9-8.3-38.8-12.7-19.6-6.7-39.2-13.2-58.6-20.2-21.9-7.8-43.8-15.8-65.5-24.1-30.7-11.9-61.3-23.9-91.7-36.9-6.6-2.8-13.3-5.6-19.9-8.5-1.9-.8-3.8-1.7-6-.4-.9,3.4-1.9,6.8-2.8,10.2Z" fill="#f9b233"/><path d="M287.3-134.4c8.7,3.8,17.5,7.5,26.2,11.3,8,3.5,16,7,24.1,10.4,5.9,2.5,11.9,4.8,17.9,7.2,6.7,2.7,13.3,5.5,20,8.2,3.2,1.3,6.5,2.4,9.7,3.7,10.4,4.2,20.9,7.9,31.3,12,10.5,4.1,21.2,8,31.8,11.9,7.7,2.8,15.4,5.6,23.2,8.4,9.1,3.3,18.2,6.4,27.3,9.6,10.4,3.7,20.9,7.1,31.4,10.7,13.9,4.7,27.9,9,41.7,13.7,9.1,3.1,18.5,5.2,27.6,8.5,12.5,4.5,25.4,7.3,38,11.5,15,4.7,30.2,8.4,45.2,12.8,2.3,.7,3.5-.4,4.3-2.9,.6-1.7,1-3.4,.7-5.1-1-2.3-3-2.4-4.9-2.9-16.3-4.6-32.8-8.6-49-13.8-19.4-6.2-39.1-11.7-58.5-18.1-18.3-6-36.7-11.7-54.8-18.2-15.5-5.5-31-10.8-46.5-16.5-12.8-4.7-25.6-9.3-38.4-14-10.8-4-21.6-8.2-32.4-12.4-9.8-3.9-19.6-7.7-29.4-11.6-8.6-3.4-17.1-7.1-25.6-10.6-10.5-4.3-20.9-8.7-31.3-13.1-7.4-3.2-14.9-6.3-22.5-9-1.4-.5-2.8-1.4-4.5-.9-.9,3.1-1.7,6.2-2.6,9.3Z" fill="#f9b233"/><path d="M502.7,1.1c.8,.2,1.6,.3,2.4,.5,1.7-.3,3.4-.1,5-.9,4-.8,7.9-2.1,11.9-3,1.1-.2,2.6-.5,2.9-2.1,.2-1.4-1.1-1.8-2-2.2-.9-.4-1.7-1.1-2.6-1.6-9.8-4.4-20.1-7-30.1-10.7-10.6-4-21.3-7.4-31.9-11.5-8.5-3.2-17.1-6.3-25.7-9.4-14.2-5.2-28.4-10.8-42.5-16.2-1.5-.6-3.4-.8-3.4-3.5,0-2.1-1.2-2.3-2.4-2.8-9.1-3.7-18.3-7.2-27.3-11-.4-.1-.8-.3-1.3-.4-1.3-.3-2.5-.7-3.6-1.5-3.8-1.6-7.5-3.2-11.3-4.7-1.2-.4-2.4-.5-3.5-1.4-1.1-.5-2.4-.5-3.4-1.4-1.7-1.2-3.7-1.7-5.7-2.2-.8-.2-1.4-.9-2.2-1.1-1.2-.3-2.4-.7-3.4-1.4-3.6-2-7.6-2.7-11.1-5-3.8-.9-7.2-3.1-10.8-4.5-.6-.3-1.2-.4-1.8-.6-1.1-.2-2-.8-3-1.3-4.4-2.3-9-3.9-13.4-6.1-1-.5-2.1-.8-3.3,0-1.5,5.6-3.1,11.1-4.6,16.7,.6,2,2.1,2.8,3.6,3.5,27.5,12,55.2,23.6,83,34.8,19.6,7.8,39.3,15.4,59,22.7,19.4,7.1,38.8,14.3,58.3,21.2,6.2,2.2,12.6,3.6,18.5,6.6,1.8,.9,3.8,.4,5.7,.4Z" fill="#f9b233"/><path d="M804.5,9.7c-10-2.7-20.1-5.3-30.2-7.6-11.5-2.6-22.8-6.2-34.3-8.9-27.4-6.4-54.4-14.2-81.4-22.1-15.5-4.5-31.1-8.8-46.5-13.9-8.8-2.9-17.7-5.2-26.5-8.2-13.5-4.5-27.1-8.8-40.6-13.3-10.7-3.5-21.3-7.5-32.1-10.9-2.2-.7-4.3-1.7-6.5-2.5-.7-.3-1.4-.7-1.8-1.5-1.1-2.4-2.8-4.2-3.4-6.9-27.8-7.7-55.5-15.4-83.3-23-1.2,3.3,1.8,5.4,1,8.6,0,.5,.2,.9,.4,1.3,.3,.4,.6,.6,1,.9,.6,.3,1.3,.5,1.9,.8,12.7,4.7,25.3,9.6,37.9,14.3,9.6,3.6,19.4,6.9,29,10.4,11.8,4.3,23.9,8,35.7,12.5,7.7,2.9,15.7,5,23.5,7.6,8.4,2.8,16.8,5.7,25.2,8.4,30.4,9.5,61,18.5,91.5,27.6,12.8,3.8,25.5,8.2,38.5,11.1,19.3,4.3,38.2,10.6,57.5,14.9,8.8,1.9,17.4,4.7,26.3,6.1,4.1-.3,7.6,1.6,11.4,2.4,1.5,.3,2.9,1,4.5,.7,2.8-1.5,5.8-2.1,8.6-3.9,.7-.4,1.6-.9,1.4-2,0-.9-.9-.9-1.5-1-2.5-.5-4.7-1.8-7.3-1.7Z" fill="#f9b233"/><path d="M502.7,1.1c-10.6-3.5-21.1-7.3-31.6-11-8-2.8-16-5.4-23.8-8.6-8.4-3.4-17.2-5.9-25.5-9.7-3.3-1.5-6.7-2.5-10.1-3.7-4.7-1.7-9.4-3.5-14-5.3-7.4-2.8-14.9-5.4-22.1-8.7-3-1.4-6.2-2.5-9.3-3.7-7.8-3-15.4-6.4-23.2-9.4-6.5-2.4-12.8-5.4-19.3-7.7-5.4-1.9-10.5-4.7-15.8-7-5.3-2.3-10.7-4.3-16-6.7-5.9-2.6-11.9-4.7-17.6-7.8-1.3,4.6-2.6,9.3-3.8,13.9,6,2.9,12.3,5.2,18.4,7.8,5.2,2.2,10.3,4.5,15.5,6.7,5.8,2.5,11.5,5.1,17.3,7.3,6.1,2.3,12,5.2,18.1,7.5,6.1,2.2,12.3,4.3,18.1,7.6,.9,.5,1.9,.7,2.9,1,5.1,1.4,9.7,3.9,14.6,5.8,3.2,1.3,6.3,2.9,9.6,3.9,6.5,2,12.7,4.8,19.1,7.1,4.3,1.6,8.6,3.2,12.9,4.9,5.5,2.1,11.2,3.5,16.5,6.3,1,.5,2.2,.8,3.3,1,6.1,1.4,11.9,4.2,17.8,6.2,6.3,2.2,12.5,4.4,18.7,6.9,3.7,1.4,7.4,1.6,11.4,.3,5.9-1.9,11.9-2.9,17.8-5.2Z" fill="#f9b233"/><path d="M880.9,147.8c-.8,.4-1.6,.1-2.3,0-12.1-2.6-24.1-5.2-36.2-7.7-18.9-3.9-37.7-8.1-56.4-12.5-20.6-4.8-41.3-9.5-61.7-15.2-10.3-2.4-20.8-4.6-30.6-8.9-1.3-.6-2.7-.9-4-1.3-21.3-5.9-42.6-11.8-63.9-17.7-1.7-.4-3.3-.9-5-1.4-7.3-2.4-15.1-3.4-22.2-6.8-2-1-4.1-1.5-6.2-2-16.6-3.9-32.7-9.9-49-14.8-12.8-3.8-25.4-8.2-38-12.5-14.9-5-29.9-10.1-44.7-15.4-11.7-4.2-23.4-8.3-35.1-12.7-11-4.2-22.1-8.1-33-12.6-28.8-10.6-57.3-22.4-85.8-34.1-7.9-3.3-15.8-6.9-23.8-10-6.8-2.7-13-7-20.4-7.8l-1,3.7c.8,2,2.4,2.9,4.1,3.6,24.8,11,49.9,21.4,75.1,31.5,19.1,7.7,38.3,15.1,57.5,22.3,18.9,7,37.8,14.2,56.8,20.7,9.2,3.1,18.4,6.5,27.6,9.6,11.9,4,23.7,8.4,35.8,11.8,.6,.2,1.1,.6,1.7,1,2.2,1.2,4.6,1.6,6.9,2.3,14,4.6,28.3,8.6,42.2,13.7,1.4,.4,2.9,.8,4.3,1.2,41,12.6,82.5,23.8,123.8,35.3,2.3,.6,4.7,1.3,7,1.9,1.2,.3,2.3,.6,3.5,1,14.6,3.2,28.8,7.6,43.3,11,15.4,3.6,30.7,7.5,46.1,10.8,18.8,4,37.6,8.4,56.5,12.1,15,3,30,6,44.9,9.1,4.1,.9,8.4,1.3,12.5,2.3,1.6,.4,3.6,.6,4.4-2,.8-2.8-1.1-3.8-2.8-4.4-6-2-12.4-2.4-18.5-3.9-2.8-.7-5.8-1-8.7-1.7-1.6-.4-3.2-1-4.9,.3Z" fill="#f9b233"/><path d="M246.8,12.1c4.8,1.1,9.1,3.5,13.5,5.5,2.6,1.2,5.2,2.2,7.8,3.3,8.4,3.6,16.9,6.6,25.3,10.3,7.3,3.2,14.7,6.1,22.1,9.1,8.6,3.5,17.2,6.8,25.8,10.2,9.2,3.6,18.4,7.2,27.6,10.6,6.7,2.5,13.4,5.1,20.2,7.6,7.2,2.6,14.4,5.4,21.6,8,8.4,3.1,16.9,6,25.4,9,9.7,3.5,19.4,6.7,29.1,10.1,5.7,2,11.6,3.3,17.1,5.7,6,2.6,12.3,3.6,18.3,6,6.7,2.8,13.8,4,20.5,6.7,8.3,3.4,17.1,4.8,25.3,8,13.2,5.1,27.2,7.8,40.6,12.2,32.9,10.9,66.5,18.9,99.8,28.2,4.3,1.2,8.8,1.8,13.2,2.8,.4-.5,.5-1,.2-1.6-3.9-4.6-8.6-7-14.6-5.1-1.8,.6-3.4,.3-5-.1-26.2-7.2-52.5-14.4-78.7-21.8-4.1-1.1-8.1-2.6-11.5-5.4-.8-.7-1.8-1.1-2.8-1.4-13-3.9-25.1-10.6-38.1-14.2-10-2.8-19.6-6.9-30.1-7.8-2.3-.2-3.9-2-5.9-2.8-2.3-1-4.5-3.4-7.4-.5-.3,.3-.5,.9-.7,0-.7-4.2-4.7-3.4-6.6-5.9-4.8-2.3-9.9-3.7-14.9-5.3-12.4-4.2-24.8-8.5-37.2-12.7-14-4.8-27.8-10-41.7-15-11.6-4.2-23.1-8.7-34.6-13-12.5-4.7-25-9.6-37.4-14.6-16.6-6.7-33.1-13.5-49.6-20.3-10-4.2-19.8-8.7-29.9-12.7-1.6-.6-3-1.6-4.8-.4-.7,2.5-1.4,4.9-2.1,7.4Z" fill="#f9b233"/><path d="M695.9,98.5c-2.3-1.9-5.2-2.1-7.9-2.8-17.5-4.2-34.8-9.2-52-14.4-14-4.2-28.2-8-42.2-12.3-20-6.1-40-12.3-60-18.8-11.4-3.7-22.7-7.6-34-11.3-14.4-4.7-28.7-9.8-43-14.9-11.5-4.1-23-8.2-34.4-12.5-14.3-5.4-28.6-11-42.9-16.5-10.1-3.9-20.2-7.7-30.2-11.7-11.3-4.5-22.6-9.3-33.9-14-7.3-3-14.5-6-21.7-9.1-8.5-3.6-17-7.4-25.5-11-1.2-.5-2.4-.8-3.6-1.2-.4,1.5-.9,3.1-1.3,4.6,2.1,4,6.2,3.9,9.5,5.5,8.1,3.9,16.4,7,24.6,10.7,4.3,1.9,8.7,3.5,13,5.5,9.2,3.4,18.3,7.3,27.3,11.1,9.6,3.9,19.2,7.7,28.8,11.6,7.2,2.9,14.4,6.1,21.8,8.2,2.5,.7,4.6,2.4,7,3,9.5,3.3,19,6.8,28.4,10.7,4,1.7,8.2,2.9,12.3,4.3,6.1,2,12.1,4.3,18.1,6.5,11.1,4.1,22.4,7.4,33.3,11.9,5.5,2.3,11.2,3.8,16.8,5.5,10.1,3.1,20,6.6,30,9.8,14.6,4.5,29.1,9.2,43.6,13.9,6.3,2,12.8,3,18.9,5.7,8.6,3.5,17.6,5.2,26.4,7.9,22.1,6.1,44.2,12.2,66.3,18.3,1.6,.4,3.1,1.2,4.9,.9,1.5-1.3,1.7-3.1,1.7-5Z" fill="#f9b233"/><path d="M265.5-55.6c3.3,.4,6,2.3,8.9,3.6,6.7,3,13.5,5.5,20.1,8.6,5.2,2.4,10.5,4.8,15.8,6.9,6,2.3,11.8,5.1,17.7,7.4,3.8,1.5,7.7,2.6,11.3,4.7,2.8,1.6,5.9,2.5,8.9,3.5,4,1.4,7.9,3,11.8,4.7,4.2,1.8,8.8,2.7,12.8,5.1,2.7,1.6,6,2.2,8.9,3.4,3.9,1.6,7.9,3,11.8,4.5,5.6,2.2,11.3,3.9,16.8,6.5,3.5,1.6,7.2,2.7,10.8,3.9,5.6,1.9,11.1,4,16.6,6.1,5.6,2.1,11.6,3.2,16.9,6.3,.2,.1,.5,.2,.7,.3,6.7,1.3,12.8,4.4,19.3,6.6,6.3,2.1,12.8,3.7,18.9,6.3,4.5,1.9,9.4,2.7,13.8,4.7,6.6,2.9,13.8,4,20.4,6.8,5.7,2.4,11.7,3.8,17.6,5.6,6.9,2,13.4,5.2,20.4,6.8,2.6,.6,4.9,.9,7.6-.5,1.9-1,4-1.4,6.3-2.1-1.2-1.5-3.1-.7-3.7-2.5-6.1-2-12.2-4-18.3-6-17.1-5.5-34.3-10.9-51.4-16.6-14-4.7-28-9.6-41.9-14.5-15.5-5.5-31-11.2-46.4-16.8-6.2-2.3-12.3-4.6-18.4-7-1.7-.7-3.2-.9-4.5,1.3-1,1.6-2.1,1-3.2,.6-4.6-1.7-9.2-3.4-13.7-5.2-6.8-2.7-13.6-5.4-20.4-8.2-11.7-4.8-23.4-9.5-35-14.3-10-4.1-20-8.4-29.9-12.6-7.7-3.3-15.4-6.7-23-10-1.1-.5-2.2-.9-3.2-1.3-.3,1.2-.7,2.5-1,3.7Z" fill="#f9b233"/><path d="M248.8,4.7c3.8,1.6,7.4,3.5,11.3,4.8,5.6,1.9,10.7,5.1,16.3,6.9,3.4,1.1,6.6,2.7,9.9,4.3,3.2,1.6,6.7,2.3,10,4,6.6,3.4,13.7,5.6,20.5,8.5,3.7,1.6,7.6,3,11.4,4.6,4.2,1.8,8.7,2.9,12.8,5.2,2.7,1.5,5.7,2.3,8.6,3.3,4.6,1.6,9.2,3.3,13.6,5.3,4.3,1.9,9,2.7,13.2,5.2,3.1,1.8,6.7,2.6,10.1,3.7,5.2,1.8,10.3,4,15.5,5.8,5.5,1.9,11.3,3.3,16.5,6.2,.2,.1,.5,.2,.7,.3,5.7,1,10.7,4.2,16.3,5.6,6.7,1.7,13.1,4.5,19.6,6.7,4.7,1.6,9.7,2.6,14.2,4.8,5.9,2.9,12.5,3.6,18.4,6.7,3.4,1.8,7.3,2.3,11.1,3.3,7.2,3.7,14.9,5.9,22.6,8.3,6.5,2,13,3.9,19.6,5.8,9,2.6,17.7,5.7,26.5,8.9,37.3,13.3,75.9,22.2,114,32.9,8.7,2.5,17.2,5.9,26.3,6.8,2-.4,3.5-2.1,5.4-3,.9-.4,1-1.4,.3-2.2-2.5-2-5.4-2.5-8.3-2.8-6.6-.8-12.8-2.8-19.1-4.6-26.4-7.3-52.9-14.2-79.1-22-16.4-4.9-32.8-9.5-49.1-14.6-14.3-4.5-28.6-9.1-42.9-13.8-16.8-5.6-33.7-11.1-50.4-16.9-20.7-7.2-41.5-14.5-62.1-22.2-17-6.3-33.9-12.9-50.8-19.5-19.5-7.7-39-15.6-58.4-23.5-12.8-5.2-25.3-11.1-38.1-16-1.7-.7-3.3-1.6-5.2-.4l-1,3.7Z" fill="#f9b233"/><path d="M259.8-35.2c-.8,2.8-1.5,5.6-2.3,8.3,.3,1.9,1.5,2.6,2.8,3.2,13.6,5.8,27.2,11.7,40.9,17.4,11.1,4.7,22.3,9.4,33.5,13.8,10,4,20,8,30.1,11.8,10.7,4.1,21.3,8.3,31.9,12.4,12.1,4.6,24.3,9.2,36.5,13.4,11.8,4.1,23.4,8.6,35.3,12.4,.9,.3,1.7,.7,2.6,.5,1-.2,1.9-.8,2-2.1,0-.8-.7-1.2-1.3-1.2-1.1,.6-2.2,.7-3.4,0-.4-.1,.4-.8,.1-.2-.1,.2,0,.3,.2,.4,.8,.2,1.7,.8,2.6-.2,.1-1.9-1.9-1.8-2-3.8,2.2-1.1,3.9,.6,5.9,.4,1,0,3.2,1.3,2.5-2.2-3.8-2.6-8.4-3.3-12.6-4.9-10-3.8-20.1-7.1-30.1-10.7-9.3-3.4-18.5-6.9-27.8-10.3-10.8-3.9-21.4-8.2-32.1-12.2-15.4-5.8-30.7-11.9-46-18.1-17.9-7.2-35.6-15-53.4-22.4-3.2-1.3-6.4-2.8-9.5-4.2-2-.9-3.9-2.1-6.3-1.6Z" fill="#f9b233"/><path d="M249.8,1c4.3,1.8,8.5,3.6,12.8,5.3,3.1,1.2,6.2,2.4,9.2,3.8,6.1,2.8,12.2,5.4,18.3,7.9,3.3,1.4,6.7,2.5,10,4,3.7,1.7,7.6,2.9,11.3,4.8,2.7,1.4,5.7,2.4,8.6,3.4,4.3,1.4,8.4,3.1,12.5,4.9,7,3.1,14.3,5.4,21.4,8.5,3.9,1.7,7.8,3.2,11.8,4.7,4.3,1.6,8.8,2.7,12.8,5.1,.3,.2,.7,.4,1.1,.5,5.7,1,10.9,3.8,16.3,5.7,7.8,2.8,15.7,5.4,23.4,8.6,3.3,1.4,6.8,2.2,10.1,3.6,5.9,2.5,12.2,3.7,17.9,6.8,.2,.1,.5,.2,.7,.3,7.1,1.4,13.5,4.8,20.4,6.7,6.9,2,13.7,4.5,20.4,6.9,5.7,2.1,11.6,3.3,17.2,5.6,7.3,3,15.1,4.3,22.3,7.3,6.9,2.9,14.3,4,21.3,6.8,13.5,5.4,27.9,7.9,41.7,12.5,35.5,11.8,71.9,20.4,107.9,30.6,4.8,1.4,9.8,1.8,14.6,3.3,.3,.4,.7,.6,1.2,.6,4.1-.6,7.5,1.6,11.3,2.1,1.3,.2,3.2,1.7,3.7-1.8-1.4-1.6-3.4-1.7-5.2-2.3-7.4-2.2-15-4-22.4-6.3-31.4-8.8-63.1-17-94.3-26.4-16.5-4.9-33.1-9.4-49.5-14.6-14.4-4.7-28.9-9.1-43.3-14-18.9-6.4-37.7-12.7-56.5-19.2-18.3-6.4-36.6-12.8-54.8-19.5-14.6-5.4-29.1-11-43.5-16.6-12.6-4.9-25.2-9.7-37.7-14.8-17.5-7.1-35.1-14.2-52.4-21.9-4.8-2.1-9.7-4-14.5-6.3-1.5-.7-3.2-1.1-4.9,0l-1,3.7Z" fill="#f9b233"/><path d="M250.9-2.8c4.4,1,8.3,3.3,12.5,5.1,5.4,2.3,10.9,4.6,16.3,6.9,5.8,2.5,11.6,4.8,17.3,7.4,3,1.4,6.2,2.3,9.3,3.7,6.3,2.9,12.9,5.1,19.3,7.7,6.4,2.6,12.7,5.7,19.2,8,4,1.4,7.9,3.1,11.8,4.6,5.2,1.9,10.4,3.6,15.4,6,3,1.4,6.2,2.4,9.4,3.5,5.3,1.8,10.6,4,15.9,5.9,4.6,1.6,9.3,2.8,13.6,5.3,.3,.2,.7,.4,1.1,.4,6.3,1.4,12.1,4.2,18.2,6.3,6.2,2.1,12.5,3.8,18.4,6.8,.2,.1,.5,.2,.7,.3,7.3,1.6,14.1,4.8,21.2,7.1,7.4,2.5,15,4.4,22.1,7.8,.3,.2,.7,.3,1.1,.4,11.6,2.9,22.8,7.2,34.1,10.8,8.1,2.6,16.3,4.6,24.2,7.6,13.6,5.2,27.9,8,41.7,12.5,35.7,11.7,72.2,20.4,108.2,30.8,10,2.1,19.9,4.5,29.4,8.3,2.3,.9,4.6,1.6,7,2.1,1.9,.4,3.8,0,4.6-2.7,.9-3-.9-3.8-2.7-4.4-6-1.8-12.1-3.4-18.1-5.1-1.5-.5-2.9-.9-4.5,.3-1.2,.9-2.3,.2-3.4,0-41.5-11.5-83.1-23-124.6-34.5-.5-.1-1-.3-1.5-.5-.2,0-.4-.2-.7-.3-13.6-3.5-26.9-8.4-40.4-12.5-15.6-4.7-30.9-10.1-46.4-14.9-4-1.2-7.9-3-12-4.1-13.3-5.1-27-8.9-40.3-13.9-5.5-2.1-11.1-4-16.6-6-12.4-4.6-25-8.4-37.1-13.8-3.6-1.6-7.5-2.6-11.2-4.1-4.7-1.8-9.4-3.4-14.1-5.2-7.3-2.3-14.2-6-21.4-8.5-6.5-2.3-12.8-5.5-19.3-7.6-6.7-2.2-12.9-5.9-19.5-8.1-8.8-2.9-17.1-6.9-25.6-10.6-8.1-3.5-16.4-6.5-24.5-10.3-2.3-1.1-4.7-2.1-7.3-2.1l-1,3.7Z" fill="#f9b233"/><path d="M289.8-143.6c5.3,2.3,10.7,4.5,16,6.8,7.9,3.4,15.9,6.8,23.8,10.2,8.5,3.6,17.1,7.2,25.6,10.7,5.8,2.4,11.7,4.8,17.5,7.2,10.5,4.2,21,8.4,31.6,12.6,6.8,2.7,13.7,5.3,20.6,7.8,13.2,5,26.5,10,39.8,14.8,4.1,1.5,8.2,2.9,12.4,4.4,11.5,4.2,23.1,8,34.6,12,18.8,6.6,37.7,12.8,56.7,18.9,6.4,2,12.8,3.9,19.1,6.1,12,4.2,24.4,7.3,36.5,11.2,20.2,6.6,40.8,11.8,61.1,17.7,.6,.2,1.2,.4,1.8,.6,1.1,1.7,2.9,2.2,4.6,2.7,14.4,4.1,28.8,8.4,43.4,11.8,13.8,3.3,27.4,7.5,41.3,10.4,9.5,2,18.8,5.2,28.5,6.4,1.2,.2,2.5,1,3.7-.4,.5-.8,.5-1.7,.3-2.5-.2-.5-.4-1-.8-1.3-.2-.1-.4-.3-.6-.4-2.6-.5-5.2-1.2-7.8-2-7.2-1.8-14.1-4.3-21.4-5.7-3.2,.4-6-1.1-9-1.8-10.8-2.8-21.3-6.2-32.2-8.6-5.5,0-10.4-2.5-15.6-3.6-21.4-5.9-42.8-11.8-64.2-17.8-7-2.3-14.4-3.2-21-6.5-1.5-.8-3.1-1.2-4.7-1.6-17.7-4.2-34.8-10.7-52.3-15.7-6.6-1.9-13.1-4.3-19.8-6.2-2.2-.7-4.6-.9-6.6-2.5-4.2-1.8-8.7-2.6-13-3.9-1.3-.4-2.6-.9-3.8-1.8-25.9-8.2-51.3-17.7-76.9-26.6-3.8-1.7-7.7-3.3-11.8-4.3-3.8-2.7-8.6-2.6-12.6-5.1-2.3-1.2-4.8-1.6-7.2-2.4-6.8-3.2-14.1-5.2-20.9-8.4-2-1.1-4.3-1.5-6.5-2.2-6.3-2.8-12.8-5.1-19.2-7.8-1.5-.9-3.2-1.3-4.8-1.8-.4-.1-.8-.2-1.2-.4-1-.2-1.9-.8-2.7-1.4-1.7-.9-3.6-1.3-5.3-1.9-2.9-1.9-6.4-2.3-9.4-4.2-4.2-1.2-7.9-3.6-12.2-4.7-.4-.1-.8-.3-1.2-.4-.8-.3-1.5-.9-2.3-1.3-10.8-4.5-21.6-8.8-32.5-12.9-6.1-1.7-12.1-3.4-18.2-5-.5-.1-1.2-1-1.4,.6Z" fill="#f9b233"/><path d="M520.7,57.8c-3.4-2.3-7.4-2.7-11.2-4-17.5-6-35.1-11.8-52.4-18.2-9.7-3.5-19.4-6.8-29-10.4-12.3-4.5-24.6-9.2-36.8-13.8-10.3-3.9-20.7-7.8-31-11.9-9.6-3.8-19.1-7.7-28.6-11.6-8.5-3.4-16.9-6.8-25.4-10.4-10.1-4.2-20.2-8.5-30.2-12.8-4.8-2.1-9.6-4.3-14.4-6.5l-1,3.7c3.8,4,9,5,13.6,7.2,12.3,5.7,25,10.3,37.4,15.7,12.2,5.3,24.5,10,36.8,15,13.2,5.4,26.6,10.4,39.9,15.6,11.9,4.6,23.8,9.1,35.7,13.4,10.4,3.7,20.8,7.5,31.2,11.1,8.7,3,17.2,7.1,26.4,8.4,3,0,6-.4,8.7,.9-1.5-1-3.2-1.1-5.1-.4-1.2,1.1-2.2,2.3-1.6,4.2,2.9,2.3,6,3.2,9.9,1.5,1.7-.8,4-2,4.9,1.8,.5,2.2,3,1.9,4.8,1.5,3.3-.8,6.2-.7,8.3,2.7,.8,1.3,2.2,1.3,3.5,1.5,5.3,1.1,10.5,2.3,15.5,4.7,2.6,1.2,5.3,2.1,8.3,1.1,1.7-.6,3.1,0,4.4,.9,11.5,6.5,24.4,8.7,36.9,11.9,9.2,2.3,18.5,4.1,27.5,7.4,8.5,3.2,17.3,5.8,26.5,6.9,1.8,.2,3.6,.5,5.3,1.2,14.8,6.1,30.7,8.4,46,12.7,6.8,1.9,13.2,5.2,20.2,6.5,1.7,.3,3.4,1.3,5.1-.4-.3-2-2.1-1-2.6-2.3-.9-.6-1.9-.8-3-.8-2.4,0-4.6-.6-6.7-1.8-13.6-3.8-27.2-7.5-40.8-11.3-17.8-5-35.6-9.9-53.3-15.2-9-2.7-17.9-5.4-26.9-8.1-1.2-.4-2.5-.6-3.7-.9-1.6,1-2.8,.5-3.7-1.1-3.3-1.5-6.7-2.6-10.1-3.6-10.9-3.3-21.7-6.7-32.5-10.1-.5,1.9,.6,1.5,.5,1.4-3-1.6-7.2-2.1-11.4-2.9,1.4-.7,2.9,2.4,4.3-.6Z" fill="#f9b233"/><path d="M472,57.4c-7.9-1.8-15.3-5.1-23-7.8-4.7-1.7-9.5-3.2-14.1-5.1-8.8-3.5-17.9-6.4-26.8-9.8-14-5.4-28.2-10.4-42.1-16.3-6.8-2.8-13.7-5.2-20.5-8-9.2-3.7-18.3-7.5-27.5-11.3-8.2-3.4-16.4-6.7-24.6-10.1-7.7-3.2-15.4-6.6-23-9.9-3.2-1.4-6.4-2.7-9.6-4.1-1.2-.5-2.5-.8-3.4-1.9l-1,3.7c3.3,.6,6.2,2.5,9.3,3.8,9.2,3.7,18.2,7.8,27.3,11.5,7.3,3,14.7,6,22.1,9.1,7.8,3.3,15.7,6.3,23.5,9.5,8.7,3.5,17.4,7,26.1,10.2,9.6,3.6,19.1,7.5,28.7,11,7,2.5,13.9,5.2,20.9,7.8,8.2,3,16.4,5.9,24.6,8.8,9.1,3.2,18.1,6.4,27.2,9.5,10.8,3.8,21.6,7.4,32.4,11,6,2,12.1,3.5,17.9,5.9,7.2,3,14.8,4.2,22,7.1,9.3,3.8,19.3,5.4,28.7,8.9,13.9,5.2,28.4,8.2,42.5,12.6,.6,.8,1.6,.9,2.4,1.1,24.8,6.9,49.7,13.8,74.5,20.6,.9,.2,1.7,.7,2.6,.3,8.7,2.3,17.3,4.7,26,7,.4-2.6-1.4-2.5-2.6-2.9-2.4-.9-4.9-1.4-7.4-2.1-28.8-7.9-57.5-16.2-86.4-23.9-1.9-.5-3.7-.9-5.3-2.2-9.6-3.6-19.8-5.5-29.5-8.7-18.2-5.9-36.5-11.4-54.6-17.3-11.6-3.8-23.2-7.5-34.7-11.6-6.1-2.1-12.2-3.9-18.2-6.3-1.5-.6-2.9-1-4.5-.3Z" fill="#f9b233"/><path d="M483.7,52.7c.6-1.2,1.2-2.3,1.8-3.5-.5-1.5-1.7-1.4-2.7-1.7-3.2-.9-6.5-1.6-9.6-2.7-6.5-2.3-13.1-4.2-19.4-7.2-.6-.3-1.2-.5-1.8-.6-7.1-1.3-13.6-4.6-20.4-6.8-8.8-2.9-17.3-6.9-26.1-9.8-4.9-1.6-9.6-3.6-14.4-5.4-4.1-1.6-8.4-2.8-12.5-5-3.3-1.7-6.9-2.9-10.4-4-7.5-2.3-14.5-5.7-21.8-8.4-8-2.9-15.9-6.3-23.8-9.6-7.6-3.2-15.3-6.5-22.9-9.9-3.8-1.7-7.6-3.8-11.8-4.5-2.5-.4-4.5-2-6.6-3-5.2-2.5-10.8-4-15.8-7-1.4-.9-3.2-1-4.8-1.5l-.8,2.8c1.7,2.4,4.6,2,6.8,3.5,2.6,1.7,5.6,2.4,8.4,3.7,5.7,2.6,11.7,4.4,17.3,7.4,2.9,1.6,6.1,2.8,9.2,3.8,4,1.3,7.8,3.2,11.6,5,2.6,1.2,5.1,2.5,7.8,3.3,7.1,2.1,13.8,5.5,20.7,8.1,6.7,2.5,13.3,5.2,19.9,8,4.2,1.8,8.7,3.1,12.9,5,5.2,2.3,10.6,3.6,15.8,5.9,3.7,1.7,7.5,3.2,11.4,4.6,6.1,2.2,12.5,3.8,18.3,6.8,.2,.1,.5,.2,.7,.3,5.8,1.1,11.2,3.7,16.6,5.9,6,2.5,12.7,3.1,18.4,6.7,.3,.2,.7,.3,1.1,.4,7.3,1.6,13.8,5.5,21.2,6.9,1.4,2.1,3,3.7,5.7,2.5Z" fill="#f9b233"/><path d="M463.1,72c-8.5-3.6-17.3-6.3-26.1-9.4-8.8-3.1-17.5-6.7-26.2-10-4-1.5-8-2.8-12-4.2-5.2-1.8-10.4-3.7-15.5-5.8-7.5-3-15.1-5.6-22.6-8.8-4-1.7-8.1-3.2-12.2-4.8-6.8-2.7-13.8-4.9-20.3-8.2-3.1-1.6-6.5-2.3-9.7-3.8-5.8-2.7-12-4.5-17.8-7.2-5.7-2.6-11.6-4.7-17.3-7.4-4.9-2.3-9.9-4.3-14.9-6.3-3.9-1.6-7.8-3.2-11.6-5.1-1.3-.6-2.7-.9-4-1.3l-.5,1.9c1.7,4.1,5.7,3.9,8.7,5.2,8.5,3.6,17,7.3,25.5,10.8,11.4,4.7,22.7,9.5,34.1,14,8.2,3.2,16.4,6.6,24.6,9.8,8.9,3.6,17.7,7.6,26.9,10.4,.6,.2,1.2,.6,1.6,1,8.9,2.7,17.6,6.3,26.3,9.8,8.8,3.5,17.9,6,26.5,10,4.8,2.2,10.1,2.9,15,4.9,7.6,3.1,15.1,6.5,23.3,7.6,1.4-.6,1.3-1.4,.2-2.1-.6-.4-1.5-.3-1.9-1.1Z" fill="#f9b233"/><path d="M373.7,42.2c-.3-.4-.6-1.1-1-1.2-4.3-.8-8.1-3.2-12.2-4.5-5.1-1.7-10-4.1-15-5.8-6.3-2.2-12-5.8-18.5-7.6-4.1-1.2-8.2-2.8-12.1-4.9-3.3-1.7-7-2.4-10.4-4-6.7-3.3-13.5-6.2-20.5-8.6-5.7-2-10.9-5.1-16.6-7.1-5.1-1.7-10.4-3.6-15-6.9l-.5,1.9c2.1,2.6,5.4,2.2,7.9,3.9,3.1,2,6.8,3.1,10.3,4.1,2.7,.8,5.2,2.2,7.7,3.4,5.4,2.6,11.1,4.5,16.5,7.1,3.6,1.7,7.2,3.2,11,4.5,5.8,1.9,11.3,4.7,16.9,7.1,.9,.4,1.9,.9,2.8,1.1,5.3,1.5,10.3,3.7,15.3,6.1,2.8,1.3,5.7,2.2,8.6,3.2,6.8,2.2,13,6.1,20,7.8,1.7-.8,3,1.1,4.7,.3Z" fill="#f9b233"/><path d="M385.9-59c-.8,1.2-1.8,2.2,.2,3,4.3,1.6,8.5,3.6,12.9,5.2,11.5,4.3,23.1,8.6,34.6,12.9,16.2,6.1,32.5,12,48.9,17.7,9.6,3.3,19.1,6.8,28.7,9.9,3.3,1.1,6.5,2.4,9.8,3.6,11.3,6.6,23.9,9.3,36,13.3,14.2,4.7,28.7,8.9,43,13.3,9.8,3,19.6,5.9,29.5,8.8,1.8,.5,3.6,1.4,5.7,.2,10.1,2.8,20.3,5.6,30.4,8.3,42.4,11.5,84.9,22.5,127.8,32.3,4.7,1.2,9.2,2.8,14.1,3.4,2.9,0,5.5,1.2,8.2,1.8,15.4,3.7,31,6.9,46.6,10.1,5.5,1.1,11,2.4,16.6,3.4,11.1,2.1,22,4.8,33.2,6.3,4.6,.6,9.1,1.8,13.5,2.8,8.5,1.9,17.1,3.1,25.7,4.8,12.3,2.4,24.7,4.3,37.1,6.3,13.6,2.3,27.3,4.1,41,6.4,.8,.1,1.6,0,2.3-.2,.5-.1,.9-.4,1.3-.9,0-3.3-1.3-4.7-4.1-5.1-13.1-1.8-26.2-3.9-39.3-6-7.5-1.2-14.9-2.6-22.4-3.9-11.5-2-23.1-3.9-34.6-5.9-3.9-.7-7.8-1.5-11.7-2.2-10.3-1.8-20.4-4.1-30.6-6-14.7-2.7-29.2-5.8-43.8-9-10.8-2.3-21.6-4.7-32.4-7.1-17.1-3.8-34-8-51-11.9-11.3-2.6-22.4-5.8-33.6-8.5-34.1-8.2-67.9-17.8-101.6-27.7-13.6-4-27.2-7.6-40.6-12.2-8.5-2.9-17.2-5.2-25.8-8-12.8-4.2-25.7-8.3-38.5-12.6-10.7-3.6-21.5-7.2-32.1-10.9-16.5-5.8-33-11.7-49.4-17.6-13.3-4.8-26.5-9.9-39.7-14.9-2.9-1.1-5.7-2.3-8.6-3.4-1.2-1-2.8-.9-4.1-1.5-1.5-.6-2.4,.2-3,1.9Z" fill="#f9b233"/><path d="M295.1-119.2c-.1,.3-.2,.6-.3,.9-.5,.5-.7,1.2-.4,1.9,.2,0,.5,.1,.7,.2,1.5,1.2,3.3,1.6,5.2,1.5,.6,.2,1.1,.4,1.3,1.3,6.9,3.7,14.1,6.1,21.2,9.3,1.2,.6,2.5,1.2,4.1,.7,.8,.2,1.7,.3,2,1.5,.6,1,1.6,.8,2.4,1.2,10,4.7,20.3,8.9,30.8,12.5,8.1,3.6,16.5,6.3,24.5,10.1,9.7,4.5,19.6,8.1,29.6,11.7,9.1,3.3,18.1,7.2,27.4,9.9,6.9,2,13.5,5.5,20.5,7.4,1.2,.3,2.4,1.1,3.7,.6,.6,.2,1.1,.5,1.3,1.3,5.9,2.1,11.5,5.1,17.5,6.7,11.6,3.2,22.9,7.3,34.2,11.4,13.7,4.9,27.8,8.7,41.4,13.7,10.9,4,22.2,7,33.2,10.7,7.5,2.5,15.1,4.7,22.8,6.8,.7,.2,1.4,.3,2.2-.2,.8-2.6-.8-2.9-2.2-3.2-11.9-2.8-23.2-7.3-35-10.5-12.1-3.2-23.9-7.7-35.8-12-3.8-1.4-8-1.4-11.5-3.1-5.8-2.9-12.1-4.1-18.1-6.3-10.6-3.9-21.2-7.7-31.8-11.3-14.3-4.9-28.4-10.4-42.7-15.2-14.2-4.8-28-10.8-42.1-16-15.4-5.7-30.6-12.1-45.9-18-6.1-2.3-11.9-5.5-18-7.7-6.1-2.2-11.9-5.3-18-7.5-1.1-.4-2.2-.8-3-1.7-5.7-2.2-11.5-4.2-17-6.9-1-.5-1.7-1.1-2.3-2.1-.6,.2-1.2,.3-1.7,.5Z" fill="#f9b233"/><path d="M315.9-110.5c1,2.3,3.3,1.9,4.9,2.8,4.7,2.5,9.4,5.3,14.8,6.2,1.9,.3,3.9,1.2,5.7,2.3,2,1.3,4.2,1.9,6.4,2.6,.4,.1,.9,0,1.1,.4,2.3,3.5,6.2,3,9.1,4.7,1.6,.9,3.2,1.6,4.9,2.1,8.7,2.9,17.4,5.9,25.8,9.9,3.7,1.7,7.4,3.6,11.4,4.5,5.4,1.2,10.5,3.5,15.5,5.5,4.5,1.8,9.1,3.8,13.5,6.1,3.8,2,8.5,2.2,12.5,3.8,5.2,2.1,10.7,3.4,15.7,6.1,1.8,1,3.9,1.2,5.9,1.8,2.3,.7,4.9,.8,6.6,3,.5,.6,1.2,.4,1.8,.5,3.1,.7,6.2,1.5,9.1,3,2.5,1.4,5.6,1.5,8.3,2.5,6.6,2.4,13.1,4.8,19.9,6.6,.2,0,.6,0,.7,.2,2.2,3.9,6,2.8,9.3,3.6,5.4,1.3,10.8,2.8,15.6,6.1,1.1,.7,2.4,.8,3.7,.7,2.9-.2,5.7,.7,8.2,2,1.9,1,3.7,1.8,5.7,2.2,7.7,1.6,14.7,5.3,22.3,7.4,3,.8,5.8,2.7,9,3.2,2.1,.4,4.4,0,6.5,.9,8.9,4.2,18.6,5.9,27.9,8.7,1.3,.4,2.5,.8,2.6,2.7,.1,.1,.2,.3,.3,.4,.2,0,.3-.1,.5-.2,.2-1,.9-1.7,1.5-2.5-12-2.8-23.3-8.1-35.3-10.8-2-.5-4-.9-5.9-1.7-7.9-3.4-16.5-4.8-24.5-8-6-2.4-12.4-3.4-18.3-5.9-6.3-2.7-13-4-19.3-6.3-9.1-3.4-18.4-6.3-27.5-9.8-5.5-2.1-11.5-2.8-16.5-6.2-.1,0-.2-.1-.4-.1-6.2-1.1-11.8-4.2-17.8-6.2-5.5-1.9-11.2-3.4-16.5-6.2-3.1-1.6-6.4-2.6-9.7-3.6-5.5-1.7-10.9-3.8-16.2-6-4.6-1.9-9.6-2.7-13.9-5.4-2.5-1.5-5.5-2.1-8.2-3.2-3.9-1.5-7.7-3.5-11.8-4.7-3.9-1.1-7.6-3.1-11.3-4.8-2.8-1.3-5.8-2.2-8.6-3.3-3.9-1.5-7.7-3.4-11.8-4.7-3.9-1.2-7.6-3.1-11.3-4.8-2.6-1.2-5.3-1.9-7.8-3.1-4-2-8.1-4.1-12.6-4.7-.4-.7-.9-.8-1.5-.4Z" fill="#f9b233"/><path d="M419.4-99.8c-.5,0-1-.2-1.7-.3,.2,1.2,1,1.3,1.5,1.8,.6,.5,1.3,.7,2,1,1.7,.8,3.4,1.6,4.6,3.4,1.1,3.8,4.6,2.5,6.8,3.8,3,.8,5.4,3.1,8.6,3.4,2.1,.5,4.2,1.1,5.9,2.5,1,.5,2.1,.7,3.1,1,2.5,.8,5.2,1,7.3,2.9,3.6,1.5,7.7,1.4,11,4,11.7,3.4,22.9,8.1,34.5,11.9,10.2,3.4,20.2,7.4,30.6,10.3,1.9,.5,3.3,2.2,5.2,2.4,4.9,1.8,10.3,2,14.9,4.8,2.8,1.4,5.9,1.8,8.8,2.7,3.8,1.3,7.9,1.7,11.5,3.7,2.7,1.3,5.5,2,8.4,2.9,17.5,5.2,35.1,10.6,52.5,16.1,4.9,1.5,9.8,3,14.7,4.5,27.4,7.6,54.8,15.2,82.3,22.8,7.6,1.3,14.9,3.7,22.4,5.6,6.1,.7,11.8,3.1,17.8,4.5,1.9,.4,3.6,1.3,5.6,1.2,3.7,.7,7.3,2,11,2.9,3.4-.2,6.3,1.9,9.6,1.8,.8-.2,1.5-.7,2.1-1.4,1.2-1.4,1.8-2.7-.3-3.2-4-.9-7.7-2.7-11.9-2.8-5.6-1.5-11.1-3.5-16.7-4.5-19.5-3.6-38.1-10.7-57.4-14.7-13.2-2.8-26.3-6.1-39.1-10.3-17.8-5.9-36.2-9.7-53.9-15.9-10.9-3.8-22.3-6-33.1-10.1-7.2-2.7-14.8-4.2-21.9-7.1-5.5-2.3-11.5-3-16.7-5.6-5.4-2.7-11.4-3-16.6-6.1-1.1-.7-2.9,0-4.1-.6-5.3-2.7-11.3-3.4-16.5-6.3-1-.6-2.2-.8-3.3-1.1-8.9-2.4-17.6-5.5-26.1-9.2-.1,0-.2,0-.4-.1-6.6-1.2-12.6-4.3-18.9-6.5-4.6-1.5-9.3-2.8-13.5-5.4-.9-.5-1.9-.7-2.9-1-5.8-1.6-11.3-4-16.8-6.5-2.7-1.2-5.7-1.7-8.5-2.5-.7,.4-1.2,.3-1.5-.4-.2,0-.5-.1-.7-.2Z" fill="#f9b233"/><path d="M623.2,83.4c-8.8-2.5-17.6-5-26.4-7.5-4.7-2.1-9.8-2.8-14.7-4.4-1.3-.4-2.8-.4-3.9-1.5-8.6-2.7-17.1-5.5-25.7-8.2-16.5-5.3-33-10.6-49.5-16-9.8-3.2-19.5-6.6-29.1-10-16.7-5.9-33.4-11.8-50-17.9-8-2.9-15.8-6.1-23.7-9.1-1.6-.6-3.2-1-4.8-1.4-1.2,.8-2.3-.9-3.5,.2,4.2,2.6,9,3.6,13.6,5.4,9.9,4,19.9,7.5,30,11.2,4.2,1.5,8.5,3,12.7,4.5,11.1,4.1,22.3,7.7,33.5,11.6,18.9,6.6,38,12.8,57,19,19.6,6.3,39.1,12.6,58.9,18.2,.2,0,.5,0,.8,0,7.1,2.8,14.6,4.2,21.9,6.4,1.1-.2,2.1,1.7,3.2-.5Z" fill="#f9b233"/><path d="M391.8,7.5c1.2,0,2.3,1,3.5-.2-9.1-3.6-18.2-7.1-27.2-10.7-9.8-3.9-19.5-8-29.3-11.7-9.5-3.6-18.7-8-28.3-11.2-1.4,.1-2.7-1.2-4.2-.2,10.2,4.6,20.6,8.7,30.9,12.8,12.4,5,24.7,10.1,37.2,14.9,5.8,2.2,11.4,4.8,17.4,6.3Z" fill="#f9b233"/><path d="M478.7,79.3c-3.4-1-6.9-1.9-10.3-2.9-1.1-.3-2.3-.3-2.8-1.7-3.1-.9-6.2-1.6-9.3-2.6-5.1-1.7-10-3.7-15-5.9-3.5-1.5-7.5-1.8-11-3.4-6-2.7-12.4-3.9-18.4-6.7-3.3-1.6-6.9-2.9-10.4-4-6.2-2-12.3-4.4-18.2-7-3-1.3-6.4-1.9-9.6-2.8-1.6-.1-3-1.6-4.7-.3,5.5,2.8,11.6,4,17.2,6.6,3.9,1.8,8.2,2.8,12.2,4.6,5.4,2.4,11.2,3.8,16.7,5.8,7.3,2.8,14.6,5.4,21.9,8.1,8.9,3.2,17.8,6.3,26.8,9.5,5.2,1.8,10.5,3.4,15.7,5.1,3,1,5.7,3.2,8.9,3.4,2.6-.4,4.8,1.2,7.4,1.4,.5-.2,.7-.6,.6-1.2-2-.6-4-1.1-5.9-1.7-3.6-2.4-8.1-1.8-11.6-4.2h0Z" fill="#f9b233"/></g><g><path d="M1037.8,263.9c-7.4-2-14.8-4.1-22.2-6.1-19.3-7.3-37.9-16.3-56.9-24.4-25-10.7-50-21.4-75.2-31.6-21.5-8.7-43.1-17.1-64.7-25.5-22.4-8.7-45-17-67.5-25.4-13.5-5-27.2-9.6-40.8-14.6-4.8-1.7-9.7-2.6-14.8-1.6-1.9,.1-3.8,.9-5.7,0-20.9-7.3-41.9-14.1-62.9-21.2-8.8-3-17.7-5.8-26.5-8.5-32.4-10.1-65-19.6-97.5-29.4-29.7-8.9-59.6-17-89.4-25.6-1.7-.5-3.4-.9-5.2-.7-1.5,0-2.9-.3-4.4-.8-20.3-6.3-41.2-10.7-61.8-15.8-19.2-4.8-38.3-9.6-57.8-13.4-7.4-1.4-14.7-3.4-22-5-20.7-4.7-41.6-8.9-62.3-13.3-22.5-4.8-45.2-9.1-67.8-13.3-27.4-5.1-54.9-9.9-82.5-14.2-18.4-2.9-36.8-5.7-55.2-8.6-1.7-.3-3.6-.3-4.8-2,1-3.5,1.9-6.9,2.9-10.4,4.6-2.1,8.7,.4,13.1,.6,1,.2,1.8,.8,2.8,1.1,8.6,1,16.9,3.2,25.6,3.6,18.4,3.2,36.9,5.9,55.3,9.2,11.2,2,22.3,4.1,33.5,5.9,12.8,2,25.5,4.6,38.2,7,9.3,1.7,18.5,3.6,27.7,5.3,13,2.5,25.8,5.8,38.9,7.9,5.4,.8,10.7,2.2,16,3.5,15.9,3.8,32,6.8,47.9,10.8,15.7,3.9,31.5,7.7,47.3,11,11,2.3,21.6,6,32.6,8.1,8.8,1.7,17.5,4,26.2,6.3,.8,.2,1.6,.4,2.4,.7,9.8,2.8,19.6,5.4,29.3,8.2,1.8,.5,3.7,1,5.7,.8,2.1,0,4.1,.8,6,1.3,24.5,6.8,49.1,13,73.4,20.5,16.7,5.1,33.5,9.5,50.1,14.8,18.3,5.9,36.7,11.2,54.9,17.2,24.5,8.1,49.1,16,73.5,24.5,8.2,2.8,16.4,5.4,24.5,8.6-6.4-3-13.2-5.1-19.8-7.3-14-4.6-28-9.4-42-14.1-18.8-6.2-37.6-12.4-56.4-18.3-14.6-4.6-29.4-9-44-13.5-50.6-15.8-102.1-28.5-153-43.2-1.6-.5-3.2-.9-4.7-1.8-1-.7-2-1.2-3.2-1.5-14.1-2.6-27.6-7.5-41.5-10.3-12.5-2.6-24.8-6.1-37.4-8.7-7.3-1.5-14.5-3.5-21.8-5.2-9.9-2.4-20-4.5-29.9-6.7-14.6-3.3-28.9-8-44-8.7-1.1,.3-2.1,.3-3.2,0-8.2-3.5-17-4.7-25.7-6.1-2.9-.5-5.8-.9-8.6-1.8-6.2-1.9-12.6-2.8-19.1-3.5-1.9-.2-3.7-.8-5.5-1.7-2.8-1.4-5.6-2.6-8.9-1.6-1.2,.4-2.4,0-3.5-.3-12.1-4.4-25.2-3.6-37.7-6.6-6-1.4-12.1-2.3-18.3-2.9-12.1-2.4-24.2-5.2-36.7-6.1-1.1-.1-2.2-.5-3.4,0-1.1,.3-2.2,.3-3-.5-5.3-2.6-11.4-2.2-17-3.5-4.3-1-8.9-1.5-13.4-1.7-.7,.5-1.4,.7-2.2,.3-1.7-1.5-3.9-1.2-6-1.6-.4,0-.8-.1-1.2-.3-1.1-.6-2.4-.5-3.7-.4-3.3-.1-6.8,.5-9.2-2.7,1.3-4.7,2.6-9.4,3.9-14.2,5.4-1.7,10.4,.5,15.6,.9,4.1,.4,8.1,1.3,12.1,1.6,4,.9,8.2,.9,12.2,1.9,6.8,.6,13.5,2.3,20.3,2.9,2.8,.3,5.3,1.7,8.2,1.4,2.3,.2,4.5,1,6.8,1.5,7.5,.9,14.8,2.6,22.3,3.4,12.8,2.8,25.8,4.2,38.6,7.3,1.2,.3,2.4,.2,3.5,.2,17.2,2.8,34.2,6.3,51.3,9.6,16.4,3.2,32.7,6.6,49,9.9,14,2.8,27.9,6.2,41.9,9.2,19,4.2,37.9,9.1,56.9,12.9,.6,.1,1.2,.2,1.7,.4,15.6,5,31.8,8,47.6,12,41.6,10.5,83.1,21.7,124.3,33.7,17.6,5.1,35.2,10,52.6,15.5,18,5.8,36.2,10.9,54,17,21.5,7.3,43.2,14.2,64.6,21.5,16.7,5.8,33.5,11.5,50.2,17.4,17.3,6,34.4,12.5,51.5,18.9,20.5,7.6,40.9,15.5,61.2,23.4,5,1.9,9.9,4,14.8,5.9,3,1.2,6.1,2.7,9.4,.4,.5-.3,1-.4,1.6-.5,7.3,.7,13.6,4.7,20.3,7.4,31.2,12.5,62.2,25.8,93,39.5,32.3,14.4,64.4,29.1,96.3,44.4,27.5,13.2,54.8,26.8,81.8,40.9,1.9,1,4.7,1.2,4.8,4.6-29.3-8.1-58.7-16.2-88-24.3-28.6-11.9-56.2-26.1-84.7-38.3-6.7-2.9-13.3-6.2-20.7-8.9,.2,3.8,1.9,5.5,4.5,6.6,18,7.9,35.9,16,53.7,24.2,2.3,1.1,5.7,1,6.1,4.9Z" fill="#fcea10"/><path d="M389.3-34.5c-2.8-.8-5.7-1.7-8.5-2.5-.4-1.1,2.7-.9,.8-2.7-2.7-2.6-5.3-5.3-9.1-6.1-14.7-3.4-29.2-7.3-43.9-10.3-7.7-1.5-15.2-3.6-22.8-5.4-15.2-3.6-30.5-6.9-45.8-10.2-16.3-3.5-32.6-6.7-49-10-17.9-3.6-35.9-7-53.9-10.4-18.3-3.5-36.6-6.6-54.9-9.8-22-3.8-44-7.1-66-10.6-6-.9-12-1.9-18-2.5-2.2-.2-4.5-.4-5.8-2.7,.3-1.3,.7-2.5,1-3.8,5.8-1.7,11.2,.4,16.7,1.2,30.7,4.5,61.3,9.5,91.9,14.8,23.7,4.1,47.4,8.5,71,13,16.1,3.1,32.1,6.4,48.1,9.8,23.5,5,47,9.9,70.5,15.4,15.7,3.7,31.3,7.3,47,11,29.2,6.9,58.1,14.6,87.1,22,20,5.1,40,10.4,59.9,15.8,4.4,1.2,8.8,2.5,13,4.4,2.1,1,4.4,1.9,6.9,.8,3-4.5,6.6-4,10.7-2.8,8.7,2.6,17.5,5.1,26.4,7.3,21.8,5.2,43.1,12.5,64.5,19.1,20.2,6.1,40.2,12.9,60.1,19.6,15.8,5.3,31.5,10.9,47.3,16.1,1.4,.5,2.8,1,3.5,2.6-.2,2.9-2.1,2.5-3.6,2-12.6-3.7-26-3.5-38.3-8.4-4.6-1.9-9.8-3.3-12.8-8.2-1.1-1.7-2.7-1.8-4.3-.7-1.7,1.1-3.6,1.7-5.1,.8-4.2-2.8-9.2-2.7-13.8-4.2-1-.3-2.4-.4-2.7-1.3-1.2-4.3-3.2-3.6-6-1.3-1.5,1.2-3.8,1.6-5.6,.7-1.8-.9-3.2-2.1-1.6-4.9,.3-.6-4.9-.7-5.9,.4-2.1,2.3-1.7,5.5,1.1,6.5,3.9,1.4,7.9,2.3,11.9,3.4,3.8,1.1,7.8,1.9,11,4.6,1,.9,2.4,1.2,3.8,1.2,11.5-.2,21.5,4.6,31.5,9.5,3.8,1.9,8,1.5,12.1,2,1,.1,2.2-.4,3.1,.1,4.8,2.5,10.2,2.8,15.4,4,1.7,.4,3.7,.8,4.1,3,.4,1.9,.2,4-1.1,5.5-1.3,1.5-2.7,.5-4.1,.2-11.6-2.8-22.5-8-34.2-10.6-1.8-.4-3.4-1-5-1.9-3.9-2.1-8.3-2.6-12.5-3.9-2.7-.4-5-2-7.7-2.6-2-.8-3.8-2.4-6.2-1.7-.5,.2-.9,.4-1.4,.6-.7,.3-1.5,.6-2.3,.6-10-4-20.7-5.7-30.6-10-.7-.3-1.4-.6-2.1-.7-14.5-3.3-28.5-8.6-42.7-13-53.8-16.5-108.3-30.5-162.4-45.8-7.4-2.1-14.8-3.9-22.4-5.2-2.9-.5-5.6-1.8-8.1-3.6Z" fill="#fcea10"/><path d="M-9.9-37.2c10.8,1.6,21.6,3.2,32.4,4.9,9.9,1.5,19.8,2.9,29.7,4.4,7.3,1.2,14.5,2.5,21.8,3.8,8.1,1.4,16.3,2.7,24.4,4,3.9,.6,7.8,1.5,11.7,2.2,12.6,2.1,25.2,4.8,37.8,7.1,12.8,2.3,25.5,4.9,38.2,7.4,9.3,1.9,18.5,3.8,27.7,5.6,10.8,2.2,21.6,4.6,32.4,6.9,12.4,2.7,24.8,5.5,37.1,8.2,16.4,3.7,32.7,7.7,49.1,11.4,10.8,2.4,21.4,5.8,32.2,8,14.9,3,29.4,7.8,44.2,11.2,17.5,4.3,34.7,9.6,52.1,14.2,2.6,.7,3.2,2.3,2.6,4.9-.4,1.8-.9,3.5-2.2,4.8-2.3,1.4-4.4,.4-6.5-.2-18.8-5.1-37.4-10.9-56.4-15.4-22.8-5.5-45.4-11.6-68.3-16.9-21.5-5-43-10.3-64.7-14.8-18.5-3.9-36.9-8-55.4-11.7-15.3-3-30.6-6.2-45.9-9.3-13-2.6-26-5-39.1-7.3-11.9-2.1-23.8-4.3-35.7-6.4-10.4-1.8-20.9-3.4-31.4-5.1-12.8-2.2-25.6-4.1-38.4-6.1-9.2-1.4-18.3-2.9-27.4-4.8-1.7-.4-3.5-.4-4.9-1.7,.9-3.1,1.7-6.3,2.6-9.4Z" fill="#fcea10"/><path d="M584.7,126.4c-11.5-3.3-23-6.6-34.3-10.3-12.9-4.2-26.1-7.3-39.1-11.4-30.8-9.7-62-18-93.3-26.2-18-4.7-35.9-9.7-54-13.9-10.3-2.4-20.5-5.3-30.9-7.7-16-3.6-31.9-7.5-47.8-11.2-12.6-2.9-25.4-5.3-38-8.5-2.6-.6-5.2-.9-7.8-1.4-.9-.2-1.8-.1-2.6,.4-2.4,1.4-5.1,2.1-7.2,4.1-31.9-8.8-63.8-17.6-95.7-26.5,.7-3.5,4.8-3.7,5.8-6.9,.3-.4,.7-.7,1.2-.9,.5-.1,1-.2,1.5-.2,.8,0,1.6,.2,2.3,.4,15.2,3,30.5,5.8,45.7,8.8,11.6,2.3,23.1,4.8,34.7,7.1,14.2,2.9,28.2,6.4,42.4,9.1,9.3,1.8,18.3,4.4,27.5,6.5,9.9,2.3,19.9,4.4,29.8,6.8,35.6,8.7,71,18,106.4,27.2,14.8,3.9,29.9,7.1,44.5,11.8,21.6,7.1,43.8,12.1,65.4,19.2,9.8,3.2,19.9,5.6,29.5,9.3,3.9,2.5,8.4,2.9,12.7,4.3,1.6,.5,3.4,.8,4.8,1.9,2,2.8,4.6,5,6.4,8.1,.4,.7,1.1,1.6,.3,2.6-.6,.7-1.4,.3-2,0-2.7-.9-5.7-1.1-8.2-2.7Z" fill="#fcea10"/><path d="M737.7,49.5c-.6-.8-1.5-1-2.3-1.3-13.4-4.5-26.9-9-40.3-13.5-20.9-7.1-42-14-63.1-20.6-23.2-7.4-46.4-14.8-69.8-21.2-11.6-3.7-23.2-7.6-35.4-9.4-1.6-.2-3.2-.7-4.7-1.2-24.5-6.8-48.9-13.5-73.4-20.3-1.9-.5-3.8-1.1-5.7-1.6-8.6-2-16.9-5.5-25.8-6.4-2.5-.2-4.9-1-7.3-1.7-18.7-5.9-38-9.6-57-14.5-14.8-3.8-29.8-7.1-44.7-10.4-17.7-4-35.3-7.9-53-11.6-14-2.9-27.9-5.9-41.9-8.6-13.3-2.5-26.5-5.4-39.9-7.5-34.6-6.9-69.5-12.6-104.3-18.3-9.7-1.6-19.5-2.9-29.2-4.6-8.2-1.5-16.8-1.2-24.6-4.6l1-3.8c2-1.3,4-1.1,6.1-.8,30.8,4.3,61.6,9.3,92.2,14.6,23.3,4,46.5,8.3,69.6,12.8,22.7,4.4,45.5,8.8,68.1,13.8,10.9,2.4,21.9,4.6,32.9,7.1,14.1,3.2,28.3,5.9,42.2,9.8,.7,.2,1.5,.1,2.2,0,2.8,.2,5.4,1.2,8.1,1.8,16.6,3.8,32.9,8.4,49.6,11.7,1.6,.5,3.3,.9,4.9,1.4,47.9,11.9,95.3,25.4,142.8,38.5,2.7,.8,5.4,1.5,8,2.2,1.3,.4,2.7,.7,4,1.1,16.3,5.4,32.9,9.5,49.2,14.6,17.3,5.4,34.7,10.6,51.9,16.4,21,7,42,13.7,62.9,21,16.6,5.8,33.1,11.6,49.8,17.1,4.6,1.6,9.1,3.6,13.7,5,1.8,.5,4,1.5,3.3,4.2-.8,2.9-3.2,2.7-5.2,2.3-7.1-1.6-13.6-4.8-20.5-6.9-3.2-1-6.3-2.4-9.6-3.4-1.8-.5-3.8-.9-4.7-3Z" fill="#fcea10"/><path d="M-12.6-27.8c6.6,1,13.1,2.1,19.7,3.1,9.8,1.5,19.6,3,29.3,4.5,10.5,1.6,21,3.3,31.5,5,7.1,1.2,14.3,2.3,21.4,3.6,12.8,2.2,25.6,4.4,38.4,6.7,8.3,1.5,16.5,3.1,24.8,4.7,15.9,3.1,31.9,6.2,47.8,9.3,4.9,1,9.8,2.1,14.7,3.1,13.7,2.8,27.4,6,41.1,8.9,22.4,4.8,44.7,9.9,66.9,15.2,7.5,1.8,14.9,3.8,22.4,5.4,14.3,3.1,28.3,7.3,42.5,10.6,23.7,5.6,47.1,12.5,70.6,18.7,.7,.2,1.4,.3,2.2,.5,2.1-.9,4.1-.3,6.1,.3,16.6,4.5,33.3,8.8,49.8,14,15.6,4.9,31.5,8.8,46.9,14,10.6,3.6,21.6,6,31.9,10.3,1.3,.5,3,.5,3.5,2.4,0,1-.4,1.7-1.1,2.4-.5,.4-1,.6-1.5,.7-.3,0-.5,0-.8,0-2.9-1-5.9-1.9-8.9-2.6-8.1-2.4-16.4-4.2-24.4-7-3-2.1-6.6-2.4-10-3.5-12.3-3.6-24.7-6.5-36.8-10.5-5.4-3.1-11.7-3.6-17.5-5.6-24.6-6.8-49.2-13.6-73.7-20.4-8.2-1.9-16.1-5.3-24.5-6.1-1.9-.2-3.8-.7-5.6-1.3-20-6.3-40.6-10.2-60.8-15.5-7.6-2-15.5-3.6-23.1-5.6-2.6-.7-5.1-1.8-7.9-1.5-5.2-.8-10.1-2.6-15.1-3.9-1.6-.4-3.1-.7-4.7-.6-30.3-7.3-60.9-13.3-91.3-19.9-4.8-.6-9.5-1.4-14.1-2.9-5.3,.2-10.1-2.6-15.3-2.6-2.9-.3-5.6-1.3-8.5-2-8.6-1.1-16.9-3.4-25.5-4.4-2.7-.2-5.1-1.1-7.7-1.7-7.9-1.1-15.6-2.7-23.4-4-2,0-3.9-.7-5.8-1.1-.5-.1-.9-.2-1.4-.4-1.1-.4-2.3-.3-3.5-.3-2.2-.1-4.2-.9-6.4-1.3-4,0-7.7-1.6-11.7-1.6-4.8-1.2-9.9-1.3-14.7-2.7-.5-.1-1-.2-1.4-.3-1-.2-2,0-3-.1-13.2-2.1-26.4-4.4-39.5-7-7-1.9-14-3.9-20.9-5.8-.5-.1-1.7,.1-1-1.3Z" fill="#fcea10"/><path d="M140.7,6.5c0,.3-.2,.6-.3,.9-5.2,1.3-9.9-.9-14.8-1.6-11.9-1.9-23.8-4.3-35.7-6.1-8.2-1.2-16.1-3.6-24.2-5.2-1.1-.2-2.2-1-3.4-.4-10-2.8-19.9-5.5-29.9-8.3-.2-.6,0-1,.5-1.3,1.6-.8,3.3-.7,4.9-.2,4.6,.9,9.2,1.6,13.8,2.2,.5,0,.9,0,1.4,0,2.7,.5,5.3,1.9,8.3,1.4,1.2,.1,2.3,.5,3.4,.8,2.2,.7,4.6,1.1,6.9,1.1,1,0,1.9,.4,2.8,.6,2.1,.7,4.2,.8,6.4,.9,2.9,.7,5.8,1.7,8.9,1.4,9.6,2.2,19.2,3.8,29,5.1,1.3,.2,2.6,.6,3.9,.9,8.8,2.3,18.1,2.4,26.8,5.5,1,.8,1.5,1.7,0,2.4-1.6,.7-3.2,.4-4.8,.3-1.3,0-2.5-1.7-3.9,0Z" fill="#fcea10"/><path d="M62.4-6c4-.5,7.8,.6,11.6,1.2,5.9,1,11.7,2.4,17.7,3.1,4.2,.5,8.3,1.7,12.5,2.2,5.5,.6,11,1.9,16.4,2.9,6.6,1.3,13.4,1.8,19.8,4.1-.3,1.7-1.3,2.8-2.7,3.7-1.3,.8-2.7,1.4-3.7,2.7C110.2,7.2,86.3,.6,62.4-6Z" fill="#fcea10"/><path d="M130.1-47.5c-.1-1.5-.6-2.9,1.8-2.5,5.2,1,10.5,1.7,15.7,2.7,13.9,2.7,27.7,5.5,41.6,8.1,19.5,3.8,39,7.8,58.5,12,11.4,2.5,22.8,4.7,34.1,7.5,3.9,.9,7.8,1.6,11.7,2.3,14.9,.6,28.9,5.3,43.2,8.5,16.8,3.8,33.5,8.3,50.2,12.4,11.4,2.8,22.8,5.8,34.3,8.8,2.1,.5,4.4,.8,5.8,3,11.6,3.2,23.3,6.5,34.9,9.7,48.6,13.7,97,27.9,145.1,43.3,5.3,1.6,10.8,2.7,15.9,4.9,2.8,1.7,6.1,2,9.2,3,17.4,5.4,34.7,11.3,52,17.2,6.1,2.1,12.3,4.1,18.4,6.3,12.2,4.4,24.5,8.1,36.5,13,4.9,2,10,3.5,15,5.1,9.5,3.1,18.8,6.9,28.2,10.2,13.6,4.8,27,10.1,40.4,15.2,14.8,5.6,29.5,11.7,44.3,17.3,.8,.3,1.6,.8,2.2,1.5,.4,.4,.7,.9,.8,1.5-1.8,2.8-3.9,3.4-6.9,2.1-14.1-5.8-28.2-11.3-42.4-16.7-8.1-3.1-16.3-6.1-24.5-9.1-12.6-4.7-25.1-9.5-37.7-14.2-4.3-1.6-8.6-3-12.9-4.6-11.2-4.1-22.6-7.8-33.8-11.8-16.1-5.8-32.3-11.2-48.6-16.6-12-4-24.1-8-36.2-11.9-19.1-6.2-38.3-12.1-57.4-18.1-12.7-4-25.5-7.5-38.2-11.4-38.5-11.9-77.4-22.4-116.4-32.6-15.7-4.1-31.3-8.6-47.2-12.1-10.1-2.3-20-5.1-30.1-7.4-15.1-3.6-30.2-7.1-45.3-10.5-12.7-2.9-25.3-5.8-38-8.5-19.6-4.2-39.3-8.3-58.9-12.3-15.9-3.2-31.9-6.2-47.8-9.2-3.5-.7-7-1.2-10.5-1.8-1.8,.1-3.3-.8-4.9-1-1.8-.3-2.2-1.5-1.9-3.3Z" fill="#fcea10"/><path d="M6.3-46c0-.3,.1-.6,.2-1-.2-.8,0-1.4,.6-1.9,.3,0,.5,.1,.8,.2,2.2-.2,4.2,.4,6,1.6,.7,.2,1.4,.2,2-.4,8.8,.7,17.5,2.6,26.3,3.7,1.5,.2,3.2,.3,4.4,1.6,.9,.2,1.9,.7,2.8-.2,1.1-.5,2.1,.2,3.1,.3,12.6,1.5,25.1,3.6,37.6,6.3,10,1.4,19.9,3.7,30,4.9,12.1,1.5,24.1,3.9,35.9,6.3,10.9,2.2,22,3.8,32.8,6.7,8,2.1,16.5,2.8,24.5,5,1.4,.4,2.9,.4,4.1,1.6,.7,.2,1.4,.2,2-.4,7,1.5,14.3,2,21.1,3.9,13.3,3.7,26.9,6.5,40.4,9.3,16.4,3.4,32.5,7.9,48.8,11.2,13.1,2.6,26,6.3,39,9.3,8.9,2,17.7,4.3,26.5,6.9,.8,.3,1.6,.6,2,1.4-.7,2.7-2.4,2-4,1.5-13.4-4.2-27.2-6.6-40.7-10.5-13.8-4-28.1-6.7-42.2-9.6-4.5-.9-8.7-3.2-13.2-3.7-7.4-.8-14.3-3.2-21.5-4.6-12.7-2.5-25.3-5.2-37.9-7.9-17-3.8-34-6.8-51-10.7-16.8-3.8-33.9-6.3-50.8-9.6-18.5-3.6-37.1-6.6-55.7-10-7.3-1.4-14.9-1.9-22.2-3.4-7.3-1.5-14.8-2.1-22.1-3.5-1.3-.3-2.6-.5-4-.3-6.9-1.3-13.7-2.8-20.7-3.5-1.2-.1-2.3,0-3.4,.6-.5-.5-1-.9-1.4-1.4Z" fill="#fcea10"/><path d="M31.8-42c2.3-1.4,4.3,.2,6.5,.4,6.1,.5,12.3,.7,18.1,2.9,2.1,.8,4.6,1.2,6.9,1.2,2.7,0,5.2,.7,7.8,1.4,.4,.1,.9,.4,1.3,.3,4.2-1.8,7.8,.8,11.7,1,2.1,0,4.1,.5,6.1,.9,10.3,2.4,20.6,4.6,31.1,5.8,4.6,.6,9.4,1,13.9,2.5,6,2,12.4,2.8,18.5,3.9,5.5,1,11.1,1.7,16.8,2.2,4.9,.4,9.6,2.8,14.6,3.6,6.4,1.1,12.5,3,19,3.5,2.3,.2,4.6,1.1,6.9,1.7,2.7,.7,5.3,2,8.2,1.1,.8-.2,1.4,.3,2.1,.6,3.5,1.1,7,2.1,10.7,2.4,3.3,.2,6.4,1.8,9.7,2.4,7.9,1.6,15.7,3.1,23.4,5.4,.3,0,.6,.3,.9,.2,4.3-2.2,7.6,.9,11.2,2.1,6.1,1.9,12.3,3.6,18.9,3.4,1.5,0,2.8,.6,4.1,1.5,2.8,1.8,6,2.6,9.2,2.8,2.4,.2,4.7,.5,6.9,1.2,8.5,2.9,17.6,3.6,26.3,6,3.5,1,7.3,1,10.7,2.2,2.3,.9,4.4,2.5,6.9,2.8,11.2,1.3,21.7,5.3,32.6,8,1.5,.4,2.9,.6,4.1-.9,.2,0,.4-.1,.5-.2,.1,.1,.2,.3,.4,.4-.3,1,0,2,0,3-13.5-4.2-27.7-6-41.1-10.3-2.2-.7-4.5-1.5-6.8-1.9-9.8-1.5-19.1-5-28.8-6.8-7.3-1.3-14.2-3.9-21.5-5-7.8-1.2-15.1-3.8-22.8-5.3-11-2.1-21.8-4.8-32.7-6.9-6.6-1.2-13-4-19.9-3.8-.1,0-.3,0-.4,0-6.8-2.5-14.1-3-21.1-4.6-6.6-1.5-13.1-3.3-19.9-3.9-3.9-.3-7.9-1.3-11.6-2.3-6.4-1.6-13-2.8-19.5-3.9-5.7-.9-11-3-16.9-3.1-3.4,0-6.6-1.2-9.9-1.8-4.8-.9-9.6-1.3-14.3-2.5-4.5-1.2-9.2-1.5-13.9-2.1-3.5-.5-6.9-1.3-10.4-2-4.8-.9-9.6-1.4-14.3-2.5-4.5-1.1-9.2-1.5-13.9-2.1-3.2-.4-6.3-1.3-9.5-1.7-5.1-.6-10.3-1-15.1-2.9-.7,.4-1.3,.2-1.7-.5Z" fill="#fcea10"/><path d="M140.7,6.5c-.5-.2-1.1-.4-1.9-.7,.9-1,1.8-.6,2.5-.7,.8-.1,1.7,.1,2.6,.2,2.1,.3,4.3,.6,6.4-.3,3.2-2.7,5.9,.4,8.9,.5,3.4,1,7.1,.4,10.4,1.9,2.4,.7,4.7,1.4,7.3,1.1,1.2,.2,2.4,.6,3.6,.9,2.9,.7,5.8,2,8.9,1.6,4.4,.7,8.5,3.1,13.1,2.7,13.5,3.5,27.3,5.8,40.9,9,12,2.8,24.2,4.8,36.1,8.1,2.2,.6,4.5,0,6.6,.8,5.9,1.2,11.3,4,17.5,4.1,3.5,.4,6.8,1.7,10.3,2.6,4.5,1,8.8,2.9,13.5,3.3,3.4,.4,6.6,1.3,9.9,2.2,20.4,5.3,40.8,10.4,61.2,15.3,5.7,1.4,11.4,2.9,17.1,4.3,31.5,8.7,63,17.4,94.5,26.2,8.3,3.1,16.9,5.1,25.4,7.6,6.5,2.8,13.5,3.9,20.2,6,2.1,.7,4.3,.9,6.2,2.1,4.1,1.5,8.4,2.3,12.5,3.7,3.3,2,7.3,1.9,10.6,3.8,.7,.6,1.2,1.4,1.4,2.4,.5,1.9,.3,3.4-2.1,2.6-4.5-1.4-9.2-2-13.4-4.2-6.4-1.8-12.9-3.2-19.2-5.4-21.4-7.7-43.8-12-65.3-19.3-14.7-5-29.5-9.4-44.6-12.9-21-4.8-41.4-11.8-62.5-16.3-13-2.8-25.5-7.2-38.6-9.7-8.7-1.7-17.1-4.6-25.8-6.1-6.7-1.1-13.1-3.8-19.8-4.5-6.8-.7-13-3.7-19.9-4-1.5,0-2.9-1.7-4.4-1.8-6.8-.6-13.1-3.4-19.9-3.8-1.3,0-2.6-.5-3.9-.9-10.2-2.9-20.5-5-31-6.6-.1,0-.3,0-.4,0-7.2-2.7-14.9-3.3-22.4-5-5.4-1.2-10.8-2.8-16.5-2.9-1.2,0-2.3-.5-3.4-.8-6.7-1.9-13.5-2.8-20.3-3.8-3.3-.5-6.6-1.7-9.9-2.6-.4-.8-1-.9-1.7-.5-.3,0-.6-.1-.8-.2Z" fill="#fcea10"/><path d="M141.6,6.7c.8-.8,1.4-.6,1.7,.5-.6-.2-1.1-.3-1.7-.5Z" fill="#fcea10"/><path d="M159.2,6.2c-3,0-5.8-1.6-8.9-1.2-6.9-2-14-2.8-21-4.2-2.3-.5-4.6-.6-6.8-1.5-.1-.5,0-.9,.5-1.1,1.7,0,3.2,1.5,5.1,.7,.6-.1,1.2-.5,1.7-.3,5,1.6,10.4,1.5,15.4,3.1,2.8,.9,5.8,.4,8.6,1.5,1.6,1.3,3.6,1.1,5.4,1.9,.4,.3,.4,.7,.1,1.1Z" fill="#fcea10"/><path d="M162.2,5.2c.3,1-.3,.9-.8,.8-.7-.1-1.3-.3-1.9-.5-1.9-.9-4.3-.3-5.7-2.4,2.8,.7,5.6,1.4,8.4,2.1Z" fill="#fcea10"/></g><g><path d="M1041.3,216.1c-6.3-1.7-12.6-3.5-18.9-5.2-16.4-6.1-32.4-13.5-48.5-20.2-21.3-8.9-42.6-17.7-64.1-26.2-18.3-7.2-36.7-14.2-55.1-21.2-19.1-7.3-38.3-14.1-57.5-21.1-11.5-4.2-23.2-8-34.7-12.2-4-1.5-8.2-2.2-12.6-1.6-1.6,0-3.2,.6-4.8,0-17.8-6.1-35.7-11.8-53.5-17.8-7.5-2.5-15-4.8-22.6-7.2-27.6-8.5-55.3-16.5-82.9-24.8-25.2-7.6-50.7-14.4-76-21.7-1.5-.4-2.9-.7-4.4-.7-1.3,0-2.5-.3-3.7-.7-17.3-5.3-35-9.1-52.5-13.5-16.3-4.1-32.6-8.3-49.1-11.5-6.3-1.3-12.5-2.9-18.7-4.3-17.6-4-35.3-7.7-52.9-11.5-19.1-4.1-38.3-7.9-57.5-11.7-23.3-4.5-46.6-8.7-70-12.7-15.6-2.6-31.2-5.1-46.8-7.8-1.5-.2-3-.3-4.1-1.7,.7-2.7,1.5-5.4,2.2-8.1,3.8-1.6,7.4,.5,11.1,.7,.8,.2,1.5,.7,2.4,.9,7.3,.9,14.3,2.8,21.7,3.2,15.6,2.8,31.3,5.3,46.9,8.2,9.5,1.8,18.9,3.6,28.4,5.2,10.8,1.8,21.6,4.1,32.4,6.2,7.9,1.5,15.7,3.1,23.5,4.7,11,2.2,21.9,5,33,6.9,4.6,.8,9.1,1.9,13.5,3,13.5,3.3,27.1,5.9,40.6,9.3,13.3,3.3,26.7,6.6,40.2,9.5,9.3,2,18.4,5.1,27.7,7,7.5,1.5,14.9,3.4,22.2,5.4,.7,.2,1.4,.4,2.1,.6,8.3,2.4,16.6,4.6,24.9,6.9,1.6,.4,3.1,.8,4.8,.7,1.8,.1,3.4,.7,5.1,1.2,20.8,5.7,41.7,11.1,62.4,17.4,14.2,4.3,28.5,8.1,42.6,12.5,15.5,4.9,31.2,9.5,46.7,14.5,20.9,6.8,41.8,13.5,62.5,20.5,7,2.4,14,4.5,20.8,7.2-5.5-2.4-11.2-4.2-16.9-6.1-11.9-3.9-23.8-7.9-35.7-11.8-16-5.2-32-10.4-48-15.4-12.5-3.9-25-7.6-37.4-11.4-43.1-13.3-86.8-24.2-130.1-36.7-1.3-.5-2.7-.8-4-1.5-.8-.6-1.8-1-2.7-1.2-11.9-2.3-23.4-6.4-35.3-8.8-10.7-2.2-21.1-5.2-31.8-7.5-6.2-1.3-12.3-3-18.5-4.5-8.4-2.1-17-3.9-25.4-5.8-12.4-2.8-24.6-6.8-37.4-7.6-.9,.2-1.8,.2-2.7-.1-7-2.9-14.4-4-21.8-5.2-2.5-.4-4.9-.8-7.3-1.6-5.3-1.6-10.7-2.4-16.2-3.1-1.6-.2-3.2-.7-4.6-1.4-2.4-1.2-4.8-2.2-7.5-1.5-1,.3-2,0-3-.3-10.3-3.7-21.4-3.3-31.9-5.8-5.1-1.2-10.3-2.1-15.5-2.6-10.3-2.1-20.6-4.5-31.1-5.5-1-.1-1.9-.4-2.9,0-.9,.2-1.8,.2-2.6-.5-4.6-2.1-9.6-1.9-14.4-3-3.7-.9-7.6-1.3-11.4-1.6-.6,.4-1.2,.5-1.8,.2-1.5-1.2-3.4-1-5.1-1.3-.3,0-.7-.1-1-.2-1-.5-2-.5-3.1-.4-2.8-.2-5.7,.3-7.8-2.3,1-3.7,2-7.4,3.1-11.1,4.5-1.2,8.8,.6,13.2,1,3.4,.4,6.8,1.2,10.3,1.5,3.4,.8,7,.8,10.3,1.7,5.8,.6,11.5,2,17.2,2.6,2.4,.3,4.5,1.4,7,1.2,2,.2,3.9,.8,5.8,1.3,6.3,.8,12.6,2.3,18.9,3.1,10.9,2.4,21.9,3.8,32.7,6.4,1,.2,2,.2,3,.2,14.6,2.5,29.1,5.6,43.6,8.5,13.9,2.8,27.7,5.8,41.6,8.6,11.9,2.5,23.7,5.4,35.6,8,16.1,3.6,32.1,7.8,48.3,11.1,.5,.1,1,.2,1.5,.3,13.3,4.2,27,6.8,40.5,10.3,35.4,9,70.6,18.6,105.7,28.7,14.9,4.3,29.9,8.5,44.8,13.1,15.3,4.8,30.7,9.2,46,14.3,18.3,6.1,36.7,11.9,55,18.1,14.2,4.8,28.5,9.7,42.7,14.5,14.7,5,29.3,10.4,43.9,15.7,17.4,6.3,34.8,12.9,52.2,19.4,4.2,1.6,8.4,3.3,12.6,4.9,2.5,1,5.2,2.2,7.9,.5,.4-.2,.9-.3,1.3-.4,6.2,.7,11.6,3.9,17.3,6.1,26.6,10.4,53,21.4,79.3,32.7,27.5,11.8,54.9,24,82.2,36.6,23.5,10.9,46.8,22,69.9,33.6,1.6,.8,4,1,4.1,3.7-24.9-6.9-49.9-13.8-74.8-20.7-24.4-9.9-48-21.5-72.2-31.6-5.7-2.4-11.4-5.1-17.6-7.3,.2,3,1.7,4.3,3.9,5.3,15.3,6.5,30.6,13.2,45.8,20,2,.9,4.8,.9,5.2,4Z" fill="#dedc00"/><path d="M488-29.8c-2.4-.7-4.8-1.4-7.2-2.1-.3-.8,2.2-.6,.6-2.1-2.3-2.1-4.6-4.2-7.8-5-12.4-2.9-24.8-6.2-37.3-8.9-6.5-1.4-12.9-3.1-19.4-4.6-12.9-3.1-25.9-6-38.9-8.8-13.8-3.1-27.7-5.8-41.6-8.7-15.2-3.1-30.5-6.2-45.7-9.2-15.5-3-31-5.8-46.6-8.6-18.6-3.4-37.3-6.4-56-9.5-5.1-.8-10.1-1.7-15.3-2.3-1.9-.2-3.8-.4-5-2.2l.8-2.9c4.9-1.2,9.5,.5,14.1,1.3,26,4.1,52,8.5,77.9,13.3,20.1,3.7,40.2,7.5,60.2,11.5,13.6,2.7,27.2,5.6,40.8,8.6,20,4.3,39.9,8.6,59.8,13.4,13.3,3.2,26.6,6.3,39.9,9.5,24.8,5.9,49.3,12.5,74,18.8,17,4.4,34,8.9,50.9,13.5,3.8,1,7.5,2.1,11.1,3.7,1.8,.8,3.7,1.5,5.8,.8,2.4-3.5,5.5-3,9-2,7.4,2.2,14.9,4.3,22.4,6.2,18.5,4.5,36.6,10.6,54.9,16.1,17.1,5.2,34.2,10.8,51.2,16.4,13.4,4.4,26.8,9.1,40.3,13.5,1.2,.4,2.4,.8,3,2.1-.1,2.3-1.7,1.9-3,1.5-10.7-3.1-22.1-3.2-32.5-7.3-4-1.5-8.3-2.8-11-6.7-.9-1.4-2.3-1.5-3.7-.7-1.4,.8-3,1.3-4.3,.5-3.6-2.2-7.9-2.2-11.7-3.6-.8-.3-2.1-.3-2.3-1.1-1.1-3.4-2.7-2.9-5.1-1.1-1.3,.9-3.2,1.2-4.7,.5-1.5-.7-2.8-1.7-1.5-3.9,.3-.4-4.1-.6-5,.2-1.8,1.8-1.3,4.3,1.1,5.1,3.3,1.1,6.8,1.9,10.1,2.9,3.3,.9,6.6,1.6,9.4,3.8,.9,.7,2,1,3.2,1,9.7,0,18.2,4,26.7,8,3.3,1.5,6.8,1.3,10.3,1.8,.8,.1,1.8-.2,2.6,.1,4.1,2.1,8.7,2.3,13,3.4,1.4,.4,3.1,.7,3.5,2.4,.4,1.5,.2,3.1-.9,4.3-1.1,1.2-2.3,.3-3.5,0-9.9-2.4-19.2-6.7-29.1-8.9-1.5-.3-2.9-.8-4.3-1.6-3.3-1.7-7.1-2.2-10.6-3.3-2.3-.4-4.3-1.6-6.5-2.2-1.7-.7-3.2-2-5.3-1.4-.4,.1-.8,.3-1.1,.4-.6,.3-1.3,.4-1.9,.4-8.5-3.3-17.6-4.8-26-8.4-.6-.2-1.2-.5-1.8-.6-12.3-2.9-24.2-7.3-36.3-11-45.7-13.9-92-25.9-138-38.9-6.3-1.8-12.6-3.3-19-4.5-2.5-.5-4.8-1.5-6.9-2.9Z" fill="#dedc00"/><path d="M150.6-39.1c9.1,1.5,18.3,2.9,27.4,4.4,8.4,1.3,16.8,2.6,25.2,4,6.2,1,12.3,2.3,18.5,3.3,6.9,1.2,13.8,2.4,20.7,3.6,3.3,.6,6.6,1.3,10,1.9,10.7,1.9,21.4,4.2,32.1,6.3,10.8,2.1,21.6,4.3,32.4,6.5,7.8,1.6,15.7,3.3,23.5,4.9,9.2,1.9,18.4,4,27.5,6,10.5,2.3,21,4.8,31.5,7.1,13.9,3.2,27.8,6.7,41.7,9.9,9.2,2.1,18.2,4.9,27.4,6.8,12.7,2.6,24.9,6.7,37.5,9.6,14.9,3.7,29.5,8.1,44.3,12,2.2,.6,2.8,1.9,2.3,3.9-.3,1.4-.7,2.7-1.8,3.7-1.9,1-3.7,.2-5.5-.3-16-4.4-31.8-9.2-47.9-13.1-19.4-4.7-38.6-9.9-58-14.5-18.3-4.3-36.5-8.8-54.9-12.8-15.7-3.4-31.3-6.9-47-10.1-13-2.7-26-5.5-39-8.1-11-2.2-22.1-4.4-33.2-6.4-10.1-1.9-20.2-3.8-30.3-5.6-8.9-1.6-17.7-3-26.6-4.6-10.8-1.9-21.7-3.7-32.6-5.4-7.8-1.3-15.5-2.6-23.3-4.2-1.5-.3-3-.4-4.2-1.4,.7-2.5,1.4-4.9,2-7.4Z" fill="#dedc00"/><path d="M656,100c-9.8-2.8-19.5-5.6-29.2-8.7-11-3.5-22.2-6.2-33.2-9.7-26.2-8.2-52.8-15.2-79.3-22.3-15.3-4-30.5-8.3-45.8-11.9-8.8-2.1-17.5-4.6-26.3-6.6-13.6-3.1-27.1-6.4-40.6-9.6-10.7-2.5-21.5-4.7-32.2-7.4-2.2-.6-4.4-.8-6.6-1.3-.8-.1-1.5-.1-2.2,.2-2,1.1-4.3,1.6-6,3.1-27.1-7.5-54.2-15-81.3-22.5,.5-2.7,4-2.8,4.8-5.3,.3-.3,.6-.5,1-.7,.4-.1,.8-.1,1.3-.1,.7,0,1.3,.2,2,.4,12.9,2.6,25.8,5.1,38.7,7.7,9.8,2,19.6,4.2,29.4,6.2,12,2.5,23.9,5.5,36,7.9,7.9,1.6,15.6,3.8,23.4,5.6,8.4,2,16.9,3.8,25.3,5.9,30.2,7.5,60.3,15.4,90.4,23.2,12.6,3.3,25.4,6.1,37.8,10.1,18.4,5.9,37.3,10.3,55.6,16.2,8.4,2.7,16.9,4.8,25.1,7.9,3.3,2.1,7.2,2.4,10.8,3.6,1.4,.5,2.9,.7,4.1,1.6,1.7,2.3,4,4,5.5,6.5,.4,.6,.9,1.3,.3,2-.5,.6-1.2,.2-1.7,0-2.3-.8-4.8-1-7-2.2Z" fill="#dedc00"/><path d="M783.9,42.4c-.5-.6-1.3-.8-2-1-11.4-3.8-22.9-7.5-34.3-11.3-17.8-6-35.7-11.7-53.7-17.3-19.7-6.2-39.4-12.4-59.4-17.9-9.9-3.1-19.8-6.4-30-8-1.4-.2-2.7-.6-4-1-20.8-5.7-41.6-11.5-62.4-17.2-1.6-.5-3.2-.9-4.9-1.4-7.3-1.7-14.4-4.6-21.9-5.5-2.1-.2-4.2-.9-6.2-1.5-15.9-5-32.3-8.3-48.4-12.4-12.6-3.2-25.3-6.1-38-9-15-3.4-30-6.8-45-10.1-11.9-2.5-23.7-5.1-35.6-7.5-11.3-2.2-22.5-4.7-33.8-6.6-29.4-6-58.9-11.1-88.5-16.2-8.2-1.4-16.5-2.6-24.7-4.1-7-1.3-14.2-1.3-20.9-4.1l.8-2.9c1.6-1,3.3-.8,5.1-.5,26.1,3.9,52.2,8.4,78.2,13.1,19.7,3.5,39.4,7.3,59.1,11.3,19.3,3.9,38.6,7.7,57.8,12,9.3,2.1,18.6,4,27.9,6.1,12,2.7,24,5.2,35.8,8.4,.6,.2,1.2,.1,1.9,0,2.4,.2,4.6,1,6.9,1.6,14.1,3.3,28,7.2,42.1,10.1,1.4,.4,2.8,.8,4.2,1.2,40.6,10.2,81,21.6,121.4,32.8,2.3,.7,4.5,1.3,6.8,1.9,1.1,.3,2.3,.6,3.4,.9,13.8,4.5,27.9,8.1,41.8,12.4,14.7,4.6,29.5,8.9,44.1,13.8,17.8,5.9,35.8,11.5,53.5,17.6,14.1,4.9,28.2,9.7,42.4,14.4,3.9,1.3,7.7,3,11.7,4.1,1.5,.4,3.4,1.3,2.8,3.3-.6,2.3-2.6,2.1-4.4,1.7-6-1.4-11.6-4-17.5-5.8-2.7-.8-5.4-2-8.2-2.8-1.6-.4-3.2-.8-4-2.5Z" fill="#dedc00"/><path d="M148.5-31.8c5.6,.9,11.1,1.9,16.7,2.8,8.3,1.4,16.6,2.7,24.9,4,8.9,1.5,17.8,3,26.7,4.5,6.1,1,12.1,2.1,18.1,3.2,10.9,2,21.7,3.9,32.6,6,7,1.3,14,2.7,21,4.1,13.5,2.7,27.1,5.4,40.6,8.2,4.2,.9,8.3,1.8,12.5,2.7,11.7,2.4,23.3,5.2,34.9,7.7,19,4.2,37.9,8.6,56.8,13.2,6.3,1.5,12.6,3.2,19,4.6,12.1,2.7,24.1,6.2,36.1,9.1,20.2,4.8,40,10.7,60,16,.6,.2,1.2,.3,1.8,.4,1.8-.6,3.5-.1,5.2,.3,14.1,3.8,28.3,7.5,42.3,11.9,13.3,4.1,26.7,7.5,39.9,11.9,9,3,18.3,5.1,27.2,8.7,1.1,.5,2.5,.5,3,1.9,0,.8-.3,1.4-.9,1.8-.4,.3-.8,.4-1.3,.5-.2,0-.4,0-.7,0-2.5-.8-5-1.6-7.5-2.2-6.9-2-14-3.6-20.8-6-2.6-1.7-5.6-2-8.5-2.9-10.4-3-21-5.5-31.3-8.9-4.7-2.5-9.9-3.1-14.9-4.7-20.9-5.8-41.8-11.6-62.7-17.3-7-1.7-13.7-4.4-20.8-5.2-1.6-.2-3.2-.6-4.8-1.1-17-5.3-34.5-8.7-51.6-13.3-6.5-1.7-13.1-3.1-19.7-4.8-2.2-.6-4.4-1.5-6.7-1.3-4.4-.7-8.6-2.2-12.8-3.3-1.3-.3-2.6-.6-4-.5-25.7-6.3-51.7-11.5-77.5-17.2-4-.6-8-1.3-11.9-2.5-4.5,0-8.5-2.2-13-2.3-2.5-.3-4.8-1.1-7.2-1.7-7.3-1-14.4-3-21.6-3.9-2.2-.2-4.4-1-6.5-1.5-6.7-1-13.2-2.4-19.9-3.5-1.7,0-3.3-.6-4.9-1-.4,0-.8-.2-1.2-.3-1-.3-2-.3-3-.3-1.9-.1-3.6-.8-5.4-1.2-3.4,0-6.5-1.4-9.9-1.5-4.1-1.1-8.4-1.2-12.5-2.4-.4,0-.8-.2-1.2-.3-.8-.2-1.7,0-2.5-.2-11.2-1.9-22.4-3.9-33.5-6.2-5.9-1.6-11.9-3.3-17.8-4.9-.4-.1-1.5,0-.9-1Z" fill="#dedc00"/><path d="M212.2-13.3c3.4-.3,6.6,.6,9.9,1.2,5,.9,10,2.1,15,2.7,3.6,.5,7.1,1.5,10.6,1.9,4.7,.6,9.3,1.7,13.9,2.6,5.6,1.1,11.4,1.6,16.8,3.6-.2,1.4-1,2.2-2.2,2.9-1.1,.6-2.3,1.1-3.1,2.1-20.3-5.6-40.7-11.3-61-16.9Z" fill="#dedc00"/><path d="M268.8-44.7c-.2-1.2-.5-2.3,1.5-1.9,4.4,.9,8.9,1.5,13.3,2.4,11.8,2.3,23.5,4.8,35.3,7.1,16.6,3.3,33.1,6.8,49.6,10.4,9.7,2.1,19.3,4.1,29,6.5,3.3,.8,6.6,1.4,9.9,2.1,12.6,.7,24.5,4.7,36.7,7.5,14.3,3.3,28.4,7.1,42.6,10.7,9.7,2.4,19.4,5,29.1,7.5,1.8,.5,3.7,.7,4.9,2.5,9.9,2.8,19.8,5.5,29.7,8.3,41.3,11.6,82.5,23.6,123.3,36.6,4.5,1.3,9.1,2.3,13.5,4.2,2.4,1.4,5.2,1.7,7.8,2.5,14.8,4.5,29.5,9.5,44.2,14.5,5.2,1.8,10.4,3.4,15.6,5.3,10.4,3.7,20.9,6.8,31.1,10.9,4.2,1.7,8.5,2.9,12.8,4.3,8.1,2.6,16,5.7,24,8.5,11.5,4,23,8.4,34.4,12.7,12.6,4.7,25.1,9.7,37.8,14.4,.7,.3,1.3,.7,1.9,1.2,.4,.3,.6,.7,.7,1.2-1.5,2.2-3.2,2.6-5.8,1.6-12-4.8-24.1-9.3-36.1-13.9-6.9-2.6-13.9-5.1-20.8-7.6-10.7-3.9-21.4-7.9-32.1-11.8-3.6-1.3-7.3-2.5-11-3.8-9.6-3.4-19.2-6.5-28.8-9.9-13.7-4.8-27.5-9.4-41.4-13.9-10.2-3.3-20.5-6.7-30.8-10-16.2-5.2-32.6-10.2-48.8-15.2-10.8-3.4-21.7-6.3-32.5-9.6-32.8-10.1-65.8-19-99-27.7-13.3-3.5-26.6-7.3-40.1-10.3-8.6-2-17-4.3-25.6-6.4-12.8-3.1-25.6-6.1-38.4-9.1-10.7-2.5-21.5-5-32.3-7.3-16.7-3.6-33.3-7.2-50-10.7-13.5-2.8-27-5.4-40.6-8.1-3-.6-5.9-1.1-8.9-1.6-1.5,0-2.8-.7-4.2-.9-1.5-.3-1.9-1.2-1.7-2.6Z" fill="#dedc00"/><path d="M164.1-45.7c0-.2,0-.5,.1-.7-.2-.6-.1-1.1,.5-1.5,.2,0,.5,.1,.7,.2,1.9-.1,3.5,.4,5.1,1.4,.6,.2,1.2,.2,1.7-.3,7.5,.7,14.8,2.3,22.3,3.4,1.3,.2,2.7,.3,3.8,1.4,.8,.2,1.6,.6,2.4,0,.9-.4,1.7,.2,2.6,.3,10.7,1.4,21.3,3.3,31.8,5.6,8.5,1.3,16.9,3.3,25.4,4.4,10.3,1.4,20.4,3.5,30.5,5.6,9.3,1.9,18.6,3.4,27.8,5.8,6.8,1.8,14,2.5,20.8,4.4,1.2,.3,2.5,.4,3.5,1.3,.6,.2,1.2,.2,1.7-.3,5.9,1.3,12.1,1.8,17.9,3.4,11.3,3.1,22.8,5.6,34.3,8,13.9,2.9,27.6,6.8,41.5,9.7,11.1,2.3,22.1,5.4,33.1,8,7.5,1.7,15,3.7,22.5,5.9,.7,.2,1.3,.5,1.7,1.1-.5,2.1-2,1.5-3.3,1.1-11.4-3.6-23.1-5.7-34.6-8.9-11.8-3.4-23.9-5.7-35.9-8.3-3.8-.8-7.4-2.7-11.2-3.1-6.3-.7-12.2-2.7-18.3-4-10.7-2.2-21.5-4.5-32.2-6.9-14.4-3.3-28.9-6-43.3-9.3-14.3-3.3-28.7-5.6-43.1-8.4-15.7-3.2-31.5-5.8-47.2-8.9-6.2-1.2-12.6-1.8-18.9-3-6.2-1.3-12.6-1.9-18.8-3.2-1.1-.2-2.2-.5-3.3-.3-5.8-1.2-11.7-2.4-17.6-3.1-1-.1-2,0-2.9,.4-.4-.4-.8-.7-1.2-1.1Z" fill="#dedc00"/><path d="M185.8-42.1c1.9-1.1,3.7,.2,5.5,.4,5.2,.5,10.4,.7,15.4,2.6,1.8,.7,3.9,1,5.9,1,2.3,0,4.4,.6,6.6,1.2,.4,0,.8,.4,1.1,.3,3.5-1.3,6.6,.8,9.9,1,1.8,.1,3.5,.4,5.2,.8,8.7,2.1,17.5,4,26.4,5.1,3.9,.5,7.9,.9,11.8,2.2,5.1,1.7,10.5,2.4,15.7,3.4,4.7,.8,9.4,1.6,14.2,2,4.2,.4,8.2,2.4,12.4,3.1,5.4,.9,10.7,2.6,16.1,3.1,2,.2,3.9,1,5.8,1.5,2.3,.6,4.5,1.7,7,1,.7-.2,1.2,.3,1.8,.5,3,1,5.9,1.8,9.1,2.1,2.8,.2,5.4,1.5,8.2,2.1,6.7,1.4,13.4,2.7,19.9,4.7,.2,0,.5,.2,.7,.2,3.6-1.6,6.4,.9,9.5,1.8,5.2,1.6,10.5,3,16,3,1.2,0,2.4,.5,3.5,1.2,2.4,1.5,5.2,2.1,7.9,2.3,2,.2,4,.5,5.9,1.1,7.3,2.4,14.9,3.1,22.3,5.2,2.9,.8,6.2,.9,9.1,2,2,.7,3.7,2.1,5.9,2.3,9.5,1.3,18.5,4.5,27.7,6.9,1.3,.3,2.5,.6,3.4-.6,.1,0,.3,0,.4-.1,.1,.1,.2,.2,.3,.3-.3,.8,0,1.6,.1,2.4-11.5-3.6-23.5-5.2-34.9-8.8-1.9-.6-3.8-1.3-5.8-1.6-8.3-1.3-16.2-4.3-24.4-5.8-6.2-1.1-12.1-3.3-18.2-4.3-6.6-1.1-12.9-3.2-19.3-4.6-9.3-1.9-18.5-4.2-27.8-6-5.6-1.1-11-3.4-16.9-3.4-.1,0-.2,0-.4,0-5.8-2.1-12-2.6-17.9-4-5.6-1.3-11.1-2.8-16.8-3.4-3.3-.3-6.7-1.2-9.9-2-5.5-1.4-11-2.5-16.5-3.4-4.8-.8-9.4-2.5-14.3-2.7-2.8-.1-5.6-1.1-8.4-1.6-4-.8-8.1-1.2-12.2-2.2-3.8-1-7.8-1.4-11.8-1.9-3-.4-5.9-1.2-8.8-1.7-4-.8-8.1-1.3-12.1-2.2-3.9-.9-7.8-1.4-11.8-1.9-2.7-.4-5.3-1.2-8.1-1.5-4.3-.5-8.7-.9-12.8-2.5-.6,.3-1.1,.1-1.5-.4Z" fill="#dedc00"/><path d="M278.7-2.1c-.5-.2-.9-.3-1.6-.6,.7-.8,1.5-.4,2.1-.5,.7,0,1.5,.1,2.2,.2,1.8,.3,3.6,.5,5.4-.2,2.7-2.1,5,.4,7.5,.6,2.9,.8,6,.4,8.8,1.6,2,.6,4,1.2,6.2,1,1.1,.2,2.1,.5,3.1,.7,2.5,.6,4.9,1.7,7.6,1.4,3.8,.6,7.2,2.6,11.1,2.3,11.5,3,23.2,5.1,34.7,7.8,10.2,2.4,20.6,4.2,30.7,7,1.8,.5,3.8,0,5.6,.7,5,1,9.6,3.3,14.8,3.5,3,.4,5.8,1.5,8.7,2.2,3.8,.9,7.5,2.5,11.5,2.8,2.9,.4,5.6,1.2,8.4,1.9,17.3,4.5,34.6,8.9,52,13.1,4.9,1.2,9.7,2.5,14.5,3.7,26.8,7.4,53.6,14.8,80.3,22.2,7.1,2.6,14.4,4.3,21.6,6.4,5.5,2.3,11.4,3.3,17.1,5.1,1.8,.6,3.7,.8,5.3,1.7,3.5,1.3,7.1,2,10.7,3.1,2.8,1.6,6.2,1.6,9,3.2,.6,.5,1,1.1,1.2,1.9,.4,1.5,.3,2.7-1.7,2-3.8-1.2-7.8-1.7-11.4-3.5-5.4-1.5-11-2.7-16.3-4.6-18.2-6.4-37.2-10.2-55.5-16.3-12.5-4.2-25.1-7.9-37.9-10.9-17.8-4.2-35.2-10-53.1-13.9-11-2.4-21.7-6.1-32.7-8.3-7.4-1.5-14.5-4-21.9-5.2-5.7-1-11.1-3.2-16.8-3.9-5.8-.7-11.1-3.2-16.9-3.5-1.3,0-2.5-1.4-3.8-1.5-5.7-.6-11.1-2.9-16.9-3.3-1.1,0-2.2-.4-3.3-.8-8.7-2.4-17.5-4.3-26.3-5.7-.1,0-.2,0-.4,0-6.2-2.2-12.7-2.9-19-4.3-4.6-1-9.2-2.4-14-2.6-1,0-2-.4-2.9-.7-5.7-1.6-11.5-2.5-17.3-3.3-2.8-.4-5.6-1.4-8.4-2.2-.4-.6-.8-.7-1.5-.4-.2,0-.5-.1-.7-.2Z" fill="#dedc00"/></g><g><path d="M964.8,215.2c-6.3-1.7-12.6-3.5-18.9-5.2-16.4-6.1-32.4-13.5-48.5-20.2-21.3-8.9-42.6-17.7-64.1-26.2-18.3-7.2-36.7-14.2-55.1-21.2-19.1-7.3-38.3-14.1-57.5-21.1-11.5-4.2-23.2-8-34.7-12.2-4-1.5-8.2-2.2-12.6-1.6-1.6,0-3.2,.6-4.8,0-17.8-6.1-35.7-11.8-53.5-17.8-7.5-2.5-15-4.8-22.6-7.2-27.6-8.5-55.3-16.5-82.9-24.8-25.2-7.6-50.7-14.4-76-21.7-1.5-.4-2.9-.7-4.4-.7-1.3,0-2.5-.3-3.7-.7-17.3-5.3-35-9.1-52.5-13.5-16.3-4.1-32.6-8.3-49.1-11.5-6.3-1.3-12.5-2.9-18.7-4.3-17.6-4-35.3-7.7-52.9-11.5-19.1-4.1-38.3-7.9-57.5-11.7-23.3-4.5-46.6-8.7-70-12.7-15.6-2.6-31.2-5.1-46.8-7.8-1.5-.2-3-.3-4.1-1.7,.7-2.7,1.5-5.4,2.2-8.1,3.8-1.6,7.4,.5,11.1,.7,.8,.2,1.5,.7,2.4,.9,7.3,.9,14.3,2.8,21.7,3.2,15.6,2.8,31.3,5.3,46.9,8.2,9.5,1.8,18.9,3.6,28.4,5.2,10.8,1.8,21.6,4.1,32.4,6.2,7.9,1.5,15.7,3.1,23.5,4.7,11,2.2,21.9,5,33,6.9,4.6,.8,9.1,1.9,13.5,3,13.5,3.3,27.1,5.9,40.6,9.3,13.3,3.3,26.7,6.6,40.2,9.5,9.3,2,18.4,5.1,27.7,7,7.5,1.5,14.9,3.4,22.2,5.4,.7,.2,1.4,.4,2.1,.6,8.3,2.4,16.6,4.6,24.9,6.9,1.6,.4,3.1,.8,4.8,.7,1.8,.1,3.4,.7,5.1,1.2,20.8,5.7,41.7,11.1,62.4,17.4,14.2,4.3,28.5,8.1,42.6,12.5,15.5,4.9,31.2,9.5,46.7,14.5,20.9,6.8,41.8,13.5,62.5,20.5,7,2.4,14,4.5,20.8,7.2-5.5-2.4-11.2-4.2-16.9-6.1-11.9-3.9-23.8-7.9-35.7-11.8-16-5.2-32-10.4-48-15.4-12.5-3.9-25-7.6-37.4-11.4-43.1-13.3-86.8-24.2-130.1-36.7-1.3-.5-2.7-.8-4-1.5-.8-.6-1.8-1-2.7-1.2-11.9-2.3-23.4-6.4-35.3-8.8-10.7-2.2-21.1-5.2-31.8-7.5-6.2-1.3-12.3-3-18.5-4.5-8.4-2.1-17-3.9-25.4-5.8-12.4-2.8-24.6-6.8-37.4-7.6-.9,.2-1.8,.2-2.7-.1-7-2.9-14.4-4-21.8-5.2-2.5-.4-4.9-.8-7.3-1.6-5.3-1.6-10.7-2.4-16.2-3.1-1.6-.2-3.2-.7-4.6-1.4-2.4-1.2-4.8-2.2-7.5-1.5-1,.3-2,0-3-.3-10.3-3.7-21.4-3.3-31.9-5.8-5.1-1.2-10.3-2.1-15.5-2.6-10.3-2.1-20.6-4.5-31.1-5.5-1-.1-1.9-.4-2.9,0-.9,.2-1.8,.2-2.6-.5-4.6-2.1-9.6-1.9-14.4-3-3.7-.9-7.6-1.3-11.4-1.6-.6,.4-1.2,.5-1.8,.2-1.5-1.2-3.4-1-5.1-1.3-.3,0-.7-.1-1-.2-1-.5-2-.5-3.1-.4-2.8-.2-5.7,.3-7.8-2.3,1-3.7,2-7.4,3.1-11.1,4.5-1.2,8.8,.6,13.2,1,3.4,.4,6.8,1.2,10.3,1.5,3.4,.8,7,.8,10.3,1.7,5.8,.6,11.5,2,17.2,2.6,2.4,.3,4.5,1.4,7,1.2,2,.2,3.9,.8,5.8,1.3,6.3,.8,12.6,2.3,18.9,3.1,10.9,2.4,21.9,3.8,32.7,6.4,1,.2,2,.2,3,.2,14.6,2.5,29.1,5.6,43.6,8.5,13.9,2.8,27.7,5.8,41.6,8.6,11.9,2.5,23.7,5.4,35.6,8,16.1,3.6,32.1,7.8,48.3,11.1,.5,.1,1,.2,1.5,.3,13.3,4.2,27,6.8,40.5,10.3,35.4,9,70.6,18.6,105.7,28.7,14.9,4.3,29.9,8.5,44.8,13.1,15.3,4.8,30.7,9.2,46,14.3,18.3,6.1,36.7,11.9,55,18.1,14.2,4.8,28.5,9.7,42.7,14.5,14.7,5,29.3,10.4,43.9,15.7,17.4,6.3,34.8,12.9,52.2,19.4,4.2,1.6,8.4,3.3,12.6,4.9,2.5,1,5.2,2.2,7.9,.5,.4-.2,.9-.3,1.3-.4,6.2,.7,11.6,3.9,17.3,6.1,26.6,10.4,53,21.4,79.3,32.7,27.5,11.8,54.9,24,82.2,36.6,23.5,10.9,46.8,22,69.9,33.6,1.6,.8,4,1,4.1,3.7-24.9-6.9-49.9-13.8-74.8-20.7-24.4-9.9-48-21.5-72.2-31.6-5.7-2.4-11.4-5.1-17.6-7.3,.2,3,1.7,4.3,3.9,5.3,15.3,6.5,30.6,13.2,45.8,20,2,.9,4.8,.9,5.2,4Z" fill="#95c11f"/><path d="M411.5-30.7c-2.4-.7-4.8-1.4-7.2-2.1-.3-.8,2.2-.6,.6-2.1-2.3-2.1-4.6-4.2-7.8-5-12.4-2.9-24.8-6.2-37.3-8.9-6.5-1.4-12.9-3.1-19.4-4.6-12.9-3.1-25.9-6-38.9-8.8-13.8-3.1-27.7-5.8-41.6-8.7-15.2-3.1-30.5-6.2-45.7-9.2-15.5-3-31-5.8-46.6-8.6-18.6-3.4-37.3-6.4-56-9.5-5.1-.8-10.1-1.7-15.3-2.3-1.9-.2-3.8-.4-5-2.2l.8-2.9c4.9-1.2,9.5,.5,14.1,1.3,26,4.1,52,8.5,77.9,13.3,20.1,3.7,40.2,7.5,60.2,11.5,13.6,2.7,27.2,5.6,40.8,8.6,20,4.3,39.9,8.6,59.8,13.4,13.3,3.2,26.6,6.3,39.9,9.5,24.8,5.9,49.3,12.5,74,18.8,17,4.4,34,8.9,50.9,13.5,3.8,1,7.5,2.1,11.1,3.7,1.8,.8,3.7,1.5,5.8,.8,2.4-3.5,5.5-3,9-2,7.4,2.2,14.9,4.3,22.4,6.2,18.5,4.5,36.6,10.6,54.9,16.1,17.1,5.2,34.2,10.8,51.2,16.4,13.4,4.4,26.8,9.1,40.3,13.5,1.2,.4,2.4,.8,3,2.1-.1,2.3-1.7,1.9-3,1.5-10.7-3.1-22.1-3.2-32.5-7.3-4-1.5-8.3-2.8-11-6.7-.9-1.4-2.3-1.5-3.7-.7-1.4,.8-3,1.3-4.3,.5-3.6-2.2-7.9-2.2-11.7-3.6-.8-.3-2.1-.3-2.3-1.1-1.1-3.4-2.7-2.9-5.1-1.1-1.3,.9-3.2,1.2-4.7,.5-1.5-.7-2.8-1.7-1.5-3.9,.3-.4-4.1-.6-5,.2-1.8,1.8-1.3,4.3,1.1,5.1,3.3,1.1,6.8,1.9,10.1,2.9,3.3,.9,6.6,1.6,9.4,3.8,.9,.7,2,1,3.2,1,9.7,0,18.2,4,26.7,8,3.3,1.5,6.8,1.3,10.3,1.8,.8,.1,1.8-.2,2.6,.1,4.1,2.1,8.7,2.3,13,3.4,1.4,.4,3.1,.7,3.5,2.4,.4,1.5,.2,3.1-.9,4.3-1.1,1.2-2.3,.3-3.5,0-9.9-2.4-19.2-6.7-29.1-8.9-1.5-.3-2.9-.8-4.3-1.6-3.3-1.7-7.1-2.2-10.6-3.3-2.3-.4-4.3-1.6-6.5-2.2-1.7-.7-3.2-2-5.3-1.4-.4,.1-.8,.3-1.1,.4-.6,.3-1.3,.4-1.9,.4-8.5-3.3-17.6-4.8-26-8.4-.6-.2-1.2-.5-1.8-.6-12.3-2.9-24.2-7.3-36.3-11-45.7-13.9-92-25.9-138-38.9-6.3-1.8-12.6-3.3-19-4.5-2.5-.5-4.8-1.5-6.9-2.9Z" fill="#95c11f"/><path d="M74.1-40c9.1,1.5,18.3,2.9,27.4,4.4,8.4,1.3,16.8,2.6,25.2,4,6.2,1,12.3,2.3,18.5,3.3,6.9,1.2,13.8,2.4,20.7,3.6,3.3,.6,6.6,1.3,10,1.9,10.7,1.9,21.4,4.2,32.1,6.3,10.8,2.1,21.6,4.3,32.4,6.5,7.8,1.6,15.7,3.3,23.5,4.9,9.2,1.9,18.4,4,27.5,6,10.5,2.3,21,4.8,31.5,7.1,13.9,3.2,27.8,6.7,41.7,9.9,9.2,2.1,18.2,4.9,27.4,6.8,12.7,2.6,24.9,6.7,37.5,9.6,14.9,3.7,29.5,8.1,44.3,12,2.2,.6,2.8,1.9,2.3,3.9-.3,1.4-.7,2.7-1.8,3.7-1.9,1-3.7,.2-5.5-.3-16-4.4-31.8-9.2-47.9-13.1-19.4-4.7-38.6-9.9-58-14.5-18.3-4.3-36.5-8.8-54.9-12.8-15.7-3.4-31.3-6.9-47-10.1-13-2.7-26-5.5-39-8.1-11-2.2-22.1-4.4-33.2-6.4-10.1-1.9-20.2-3.8-30.3-5.6-8.9-1.6-17.7-3-26.6-4.6-10.8-1.9-21.7-3.7-32.6-5.4-7.8-1.3-15.5-2.6-23.3-4.2-1.5-.3-3-.4-4.2-1.4,.7-2.5,1.4-4.9,2-7.4Z" fill="#95c11f"/><path d="M579.5,99.1c-9.8-2.8-19.5-5.6-29.2-8.7-11-3.5-22.2-6.2-33.2-9.7-26.2-8.2-52.8-15.2-79.3-22.3-15.3-4-30.5-8.3-45.8-11.9-8.8-2.1-17.5-4.6-26.3-6.6-13.6-3.1-27.1-6.4-40.6-9.6-10.7-2.5-21.5-4.7-32.2-7.4-2.2-.6-4.4-.8-6.6-1.3-.8-.1-1.5-.1-2.2,.2-2,1.1-4.3,1.6-6,3.1-27.1-7.5-54.2-15-81.3-22.5,.5-2.7,4-2.8,4.8-5.3,.3-.3,.6-.5,1-.7,.4-.1,.8-.1,1.3-.1,.7,0,1.3,.2,2,.4,12.9,2.6,25.8,5.1,38.7,7.7,9.8,2,19.6,4.2,29.4,6.2,12,2.5,23.9,5.5,36,7.9,7.9,1.6,15.6,3.8,23.4,5.6,8.4,2,16.9,3.8,25.3,5.9,30.2,7.5,60.3,15.4,90.4,23.2,12.6,3.3,25.4,6.1,37.8,10.1,18.4,5.9,37.3,10.3,55.6,16.2,8.4,2.7,16.9,4.8,25.1,7.9,3.3,2.1,7.2,2.4,10.8,3.6,1.4,.5,2.9,.7,4.1,1.6,1.7,2.3,4,4,5.5,6.5,.4,.6,.9,1.3,.3,2-.5,.6-1.2,.2-1.7,0-2.3-.8-4.8-1-7-2.2Z" fill="#95c11f"/><path d="M707.3,41.5c-.5-.6-1.3-.8-2-1-11.4-3.8-22.9-7.5-34.3-11.3-17.8-6-35.7-11.7-53.7-17.3-19.7-6.2-39.4-12.4-59.4-17.9-9.9-3.1-19.8-6.4-30-8-1.4-.2-2.7-.6-4-1-20.8-5.7-41.6-11.5-62.4-17.2-1.6-.5-3.2-.9-4.9-1.4-7.3-1.7-14.4-4.6-21.9-5.5-2.1-.2-4.2-.9-6.2-1.5-15.9-5-32.3-8.3-48.4-12.4-12.6-3.2-25.3-6.1-38-9-15-3.4-30-6.8-45-10.1-11.9-2.5-23.7-5.1-35.6-7.5-11.3-2.2-22.5-4.7-33.8-6.6-29.4-6-58.9-11.1-88.5-16.2-8.2-1.4-16.5-2.6-24.7-4.1-7-1.3-14.2-1.3-20.9-4.1l.8-2.9c1.6-1,3.3-.8,5.1-.5,26.1,3.9,52.2,8.4,78.2,13.1,19.7,3.5,39.4,7.3,59.1,11.3,19.3,3.9,38.6,7.7,57.8,12,9.3,2.1,18.6,4,27.9,6.1,12,2.7,24,5.2,35.8,8.4,.6,.2,1.2,.1,1.9,0,2.4,.2,4.6,1,6.9,1.6,14.1,3.3,28,7.2,42.1,10.1,1.4,.4,2.8,.8,4.2,1.2,40.6,10.2,81,21.6,121.4,32.8,2.3,.7,4.5,1.3,6.8,1.9,1.1,.3,2.3,.6,3.4,.9,13.8,4.5,27.9,8.1,41.8,12.4,14.7,4.6,29.5,8.9,44.1,13.8,17.8,5.9,35.8,11.5,53.5,17.6,14.1,4.9,28.2,9.7,42.4,14.4,3.9,1.3,7.7,3,11.7,4.1,1.5,.4,3.4,1.3,2.8,3.3-.6,2.3-2.6,2.1-4.4,1.7-6-1.4-11.6-4-17.5-5.8-2.7-.8-5.4-2-8.2-2.8-1.6-.4-3.2-.8-4-2.5Z" fill="#95c11f"/><path d="M72-32.6c5.6,.9,11.1,1.9,16.7,2.8,8.3,1.4,16.6,2.7,24.9,4,8.9,1.5,17.8,3,26.7,4.5,6.1,1,12.1,2.1,18.1,3.2,10.9,2,21.7,3.9,32.6,6,7,1.3,14,2.7,21,4.1,13.5,2.7,27.1,5.4,40.6,8.2,4.2,.9,8.3,1.8,12.5,2.7,11.7,2.4,23.3,5.2,34.9,7.7,19,4.2,37.9,8.6,56.8,13.2,6.3,1.5,12.6,3.2,19,4.6,12.1,2.7,24.1,6.2,36.1,9.1,20.2,4.8,40,10.7,60,16,.6,.2,1.2,.3,1.8,.4,1.8-.6,3.5-.1,5.2,.3,14.1,3.8,28.3,7.5,42.3,11.9,13.3,4.1,26.7,7.5,39.9,11.9,9,3,18.3,5.1,27.2,8.7,1.1,.5,2.5,.5,3,1.9,0,.8-.3,1.4-.9,1.8-.4,.3-.8,.4-1.3,.5-.2,0-.4,0-.7,0-2.5-.8-5-1.6-7.5-2.2-6.9-2-14-3.6-20.8-6-2.6-1.7-5.6-2-8.5-2.9-10.4-3-21-5.5-31.3-8.9-4.7-2.5-9.9-3.1-14.9-4.7-20.9-5.8-41.8-11.6-62.7-17.3-7-1.7-13.7-4.4-20.8-5.2-1.6-.2-3.2-.6-4.8-1.1-17-5.3-34.5-8.7-51.6-13.3-6.5-1.7-13.1-3.1-19.7-4.8-2.2-.6-4.4-1.5-6.7-1.3-4.4-.7-8.6-2.2-12.8-3.3-1.3-.3-2.6-.6-4-.5-25.7-6.3-51.7-11.5-77.5-17.2-4-.6-8-1.3-11.9-2.5-4.5,0-8.5-2.2-13-2.3-2.5-.3-4.8-1.1-7.2-1.7-7.3-1-14.4-3-21.6-3.9-2.2-.2-4.4-1-6.5-1.5-6.7-1-13.2-2.4-19.9-3.5-1.7,0-3.3-.6-4.9-1-.4,0-.8-.2-1.2-.3-1-.3-2-.3-3-.3-1.9-.1-3.6-.8-5.4-1.2-3.4,0-6.5-1.4-9.9-1.5-4.1-1.1-8.4-1.2-12.5-2.4-.4,0-.8-.2-1.2-.3-.8-.2-1.7,0-2.5-.2-11.2-1.9-22.4-3.9-33.5-6.2-5.9-1.6-11.9-3.3-17.8-4.9-.4-.1-1.5,0-.9-1Z" fill="#95c11f"/><path d="M135.7-14.2c3.4-.3,6.6,.6,9.9,1.2,5,.9,10,2.1,15,2.7,3.6,.5,7.1,1.5,10.6,1.9,4.7,.6,9.3,1.7,13.9,2.6,5.6,1.1,11.4,1.6,16.8,3.6-.2,1.4-1,2.2-2.2,2.9-1.1,.6-2.3,1.1-3.1,2.1-20.3-5.6-40.7-11.3-61-16.9Z" fill="#95c11f"/><path d="M192.2-45.6c-.2-1.2-.5-2.3,1.5-1.9,4.4,.9,8.9,1.5,13.3,2.4,11.8,2.3,23.5,4.8,35.3,7.1,16.6,3.3,33.1,6.8,49.6,10.4,9.7,2.1,19.3,4.1,29,6.5,3.3,.8,6.6,1.4,9.9,2.1,12.6,.7,24.5,4.7,36.7,7.5,14.3,3.3,28.4,7.1,42.6,10.7,9.7,2.4,19.4,5,29.1,7.5,1.8,.5,3.7,.7,4.9,2.5,9.9,2.8,19.8,5.5,29.7,8.3,41.3,11.6,82.5,23.6,123.3,36.6,4.5,1.3,9.1,2.3,13.5,4.2,2.4,1.4,5.2,1.7,7.8,2.5,14.8,4.5,29.5,9.5,44.2,14.5,5.2,1.8,10.4,3.4,15.6,5.3,10.4,3.7,20.9,6.8,31.1,10.9,4.2,1.7,8.5,2.9,12.8,4.3,8.1,2.6,16,5.7,24,8.5,11.5,4,23,8.4,34.4,12.7,12.6,4.7,25.1,9.7,37.8,14.4,.7,.3,1.3,.7,1.9,1.2,.4,.3,.6,.7,.7,1.2-1.5,2.2-3.2,2.6-5.8,1.6-12-4.8-24.1-9.3-36.1-13.9-6.9-2.6-13.9-5.1-20.8-7.6-10.7-3.9-21.4-7.9-32.1-11.8-3.6-1.3-7.3-2.5-11-3.8-9.6-3.4-19.2-6.5-28.8-9.9-13.7-4.8-27.5-9.4-41.4-13.9-10.2-3.3-20.5-6.7-30.8-10-16.2-5.2-32.6-10.2-48.8-15.2-10.8-3.4-21.7-6.3-32.5-9.6-32.8-10.1-65.8-19-99-27.7-13.3-3.5-26.6-7.3-40.1-10.3-8.6-2-17-4.3-25.6-6.4-12.8-3.1-25.6-6.1-38.4-9.1-10.7-2.5-21.5-5-32.3-7.3-16.7-3.6-33.3-7.2-50-10.7-13.5-2.8-27-5.4-40.6-8.1-3-.6-5.9-1.1-8.9-1.6-1.5,0-2.8-.7-4.2-.9-1.5-.3-1.9-1.2-1.7-2.6Z" fill="#95c11f"/><path d="M87.6-46.6c0-.2,0-.5,.1-.7-.2-.6-.1-1.1,.5-1.5,.2,0,.5,.1,.7,.2,1.9-.1,3.5,.4,5.1,1.4,.6,.2,1.2,.2,1.7-.3,7.5,.7,14.8,2.3,22.3,3.4,1.3,.2,2.7,.3,3.8,1.4,.8,.2,1.6,.6,2.4,0,.9-.4,1.7,.2,2.6,.3,10.7,1.4,21.3,3.3,31.8,5.6,8.5,1.3,16.9,3.3,25.4,4.4,10.3,1.4,20.4,3.5,30.5,5.6,9.3,1.9,18.6,3.4,27.8,5.8,6.8,1.8,14,2.5,20.8,4.4,1.2,.3,2.5,.4,3.5,1.3,.6,.2,1.2,.2,1.7-.3,5.9,1.3,12.1,1.8,17.9,3.4,11.3,3.1,22.8,5.6,34.3,8,13.9,2.9,27.6,6.8,41.5,9.7,11.1,2.3,22.1,5.4,33.1,8,7.5,1.7,15,3.7,22.5,5.9,.7,.2,1.3,.5,1.7,1.1-.5,2.1-2,1.5-3.3,1.1-11.4-3.6-23.1-5.7-34.6-8.9-11.8-3.4-23.9-5.7-35.9-8.3-3.8-.8-7.4-2.7-11.2-3.1-6.3-.7-12.2-2.7-18.3-4-10.7-2.2-21.5-4.5-32.2-6.9-14.4-3.3-28.9-6-43.3-9.3-14.3-3.3-28.7-5.6-43.1-8.4-15.7-3.2-31.5-5.8-47.2-8.9-6.2-1.2-12.6-1.8-18.9-3-6.2-1.3-12.6-1.9-18.8-3.2-1.1-.2-2.2-.5-3.3-.3-5.8-1.2-11.7-2.4-17.6-3.1-1-.1-2,0-2.9,.4-.4-.4-.8-.7-1.2-1.1Z" fill="#95c11f"/><path d="M109.3-43c1.9-1.1,3.7,.2,5.5,.4,5.2,.5,10.4,.7,15.4,2.6,1.8,.7,3.9,1,5.9,1,2.3,0,4.4,.6,6.6,1.2,.4,0,.8,.4,1.1,.3,3.5-1.3,6.6,.8,9.9,1,1.8,.1,3.5,.4,5.2,.8,8.7,2.1,17.5,4,26.4,5.1,3.9,.5,7.9,.9,11.8,2.2,5.1,1.7,10.5,2.4,15.7,3.4,4.7,.8,9.4,1.6,14.2,2,4.2,.4,8.2,2.4,12.4,3.1,5.4,.9,10.7,2.6,16.1,3.1,2,.2,3.9,1,5.8,1.5,2.3,.6,4.5,1.7,7,1,.7-.2,1.2,.3,1.8,.5,3,1,5.9,1.8,9.1,2.1,2.8,.2,5.4,1.5,8.2,2.1,6.7,1.4,13.4,2.7,19.9,4.7,.2,0,.5,.2,.7,.2,3.6-1.6,6.4,.9,9.5,1.8,5.2,1.6,10.5,3,16,3,1.2,0,2.4,.5,3.5,1.2,2.4,1.5,5.2,2.1,7.9,2.3,2,.2,4,.5,5.9,1.1,7.3,2.4,14.9,3.1,22.3,5.2,2.9,.8,6.2,.9,9.1,2,2,.7,3.7,2.1,5.9,2.3,9.5,1.3,18.5,4.5,27.7,6.9,1.3,.3,2.5,.6,3.4-.6,.1,0,.3,0,.4-.1,.1,.1,.2,.2,.3,.3-.3,.8,0,1.6,.1,2.4-11.5-3.6-23.5-5.2-34.9-8.8-1.9-.6-3.8-1.3-5.8-1.6-8.3-1.3-16.2-4.3-24.4-5.8-6.2-1.1-12.1-3.3-18.2-4.3-6.6-1.1-12.9-3.2-19.3-4.6-9.3-1.9-18.5-4.2-27.8-6-5.6-1.1-11-3.4-16.9-3.4-.1,0-.2,0-.4,0-5.8-2.1-12-2.6-17.9-4-5.6-1.3-11.1-2.8-16.8-3.4-3.3-.3-6.7-1.2-9.9-2-5.5-1.4-11-2.5-16.5-3.4-4.8-.8-9.4-2.5-14.3-2.7-2.8-.1-5.6-1.1-8.4-1.6-4-.8-8.1-1.2-12.2-2.2-3.8-1-7.8-1.4-11.8-1.9-3-.4-5.9-1.2-8.8-1.7-4-.8-8.1-1.3-12.1-2.2-3.9-.9-7.8-1.4-11.8-1.9-2.7-.4-5.3-1.2-8.1-1.5-4.3-.5-8.7-.9-12.8-2.5-.6,.3-1.1,.1-1.5-.4Z" fill="#95c11f"/><path d="M202.2-3c-.5-.2-.9-.3-1.6-.6,.7-.8,1.5-.4,2.1-.5,.7,0,1.5,.1,2.2,.2,1.8,.3,3.6,.5,5.4-.2,2.7-2.1,5,.4,7.5,.6,2.9,.8,6,.4,8.8,1.6,2,.6,4,1.2,6.2,1,1.1,.2,2.1,.5,3.1,.7,2.5,.6,4.9,1.7,7.6,1.4,3.8,.6,7.2,2.6,11.1,2.3,11.5,3,23.2,5.1,34.7,7.8,10.2,2.4,20.6,4.2,30.7,7,1.8,.5,3.8,0,5.6,.7,5,1,9.6,3.3,14.8,3.5,3,.4,5.8,1.5,8.7,2.2,3.8,.9,7.5,2.5,11.5,2.8,2.9,.4,5.6,1.2,8.4,1.9,17.3,4.5,34.6,8.9,52,13.1,4.9,1.2,9.7,2.5,14.5,3.7,26.8,7.4,53.6,14.8,80.3,22.2,7.1,2.6,14.4,4.3,21.6,6.4,5.5,2.3,11.4,3.3,17.1,5.1,1.8,.6,3.7,.8,5.3,1.7,3.5,1.3,7.1,2,10.7,3.1,2.8,1.6,6.2,1.6,9,3.2,.6,.5,1,1.1,1.2,1.9,.4,1.5,.3,2.7-1.7,2-3.8-1.2-7.8-1.7-11.4-3.5-5.4-1.5-11-2.7-16.3-4.6-18.2-6.4-37.2-10.2-55.5-16.3-12.5-4.2-25.1-7.9-37.9-10.9-17.8-4.2-35.2-10-53.1-13.9-11-2.4-21.7-6.1-32.7-8.3-7.4-1.5-14.5-4-21.9-5.2-5.7-1-11.1-3.2-16.8-3.9-5.8-.7-11.1-3.2-16.9-3.5-1.3,0-2.5-1.4-3.8-1.5-5.7-.6-11.1-2.9-16.9-3.3-1.1,0-2.2-.4-3.3-.8-8.7-2.4-17.5-4.3-26.3-5.7-.1,0-.2,0-.4,0-6.2-2.2-12.7-2.9-19-4.3-4.6-1-9.2-2.4-14-2.6-1,0-2-.4-2.9-.7-5.7-1.6-11.5-2.5-17.3-3.3-2.8-.4-5.6-1.4-8.4-2.2-.4-.6-.8-.7-1.5-.4-.2,0-.5-.1-.7-.2Z" fill="#95c11f"/></g></svg>