<?xml version="1.0" encoding="UTF-8"?><svg id="Capa_1" xmlns="http://www.w3.org/2000/svg" width="1350.7" height="461.8" viewBox="0 0 1350.7 461.8"><g><path d="M1695.1,462.2c-223.2-37.5-447.9-64.2-673.7-80.1-.4,10.2-.8,20.3-1.1,30.5,224.7,18.1,448.4,47,670.3,86.7,1.5-12.4,3-24.7,4.5-37.1Z" fill="#be1622"/><path d="M689.4,314.5c303.4,.8,606.4,21.1,907.2,60.8-1.3,11.8-2.6,23.5-3.8,35.3-299.3-42.5-600.9-65.7-903.2-69.5,0-10.6-.1-15.9-.2-26.6Z" fill="#be1622"/><path d="M1427.9,278.5c-282.1-23.7-565.2-30.6-848.1-20.8,.3,11.9,.5,23.8,.8,35.7,281.5-6,563,4.8,843.2,32.1,1.4-15.7,2.7-31.4,4.1-47Z" fill="#be1622"/><path d="M816.4,147.3c305-11.5,610.3-3.7,914.3,23.1-1.4,11.8-2.9,23.6-4.3,35.4-302.5-29.6-606.4-40.1-910.2-31.4,.1-10.8,.2-16.3,.3-27.1Z" fill="#be1622"/><path d="M1544.3,212.2c-284.7-22.3-570.5-27.7-855.9-16.1,0,12.4,.2,24.8,.3,37.2,283.9-7.7,567.9,1.5,850.7,27.4,1.6-16.2,3.3-32.3,4.9-48.5Z" fill="#be1622"/><path d="M1738,110.4c-234.9-17.1-470.4-23-705.8-17.5-.4,10.2-.8,20.3-1.1,30.5,234.4-3.2,468.8,4.9,702.4,24.1,1.5-12.4,3-24.7,4.5-37.1Z" fill="#be1622"/></g><g><path d="M1766.7,459.5c-223.3-38.9-448.2-67.1-674.2-84.4-.5,10.4-1,20.8-1.4,31.2,224.9,19.6,448.7,49.9,670.7,91,1.6-12.6,3.3-25.2,4.9-37.8Z" fill="#e6332a"/><path d="M760.7,304c303.9,2.7,607.2,24.9,908.2,66.6-1.4,12-2.8,24-4.2,35.9-299.5-44.4-601.4-69.5-904.1-75.2,0-10.9,0-16.4,0-27.3Z" fill="#e6332a"/><path d="M1500.8,271.2c-282.4-25.5-565.9-34.2-849.3-26.2,.2,12.2,.3,24.4,.5,36.6,281.9-4.2,563.8,8.3,844.3,37.5,1.5-16,3.1-32,4.6-48Z" fill="#e6332a"/><path d="M889.6,133.4c305.6-9.5,611.5,.2,915.9,29.1-1.6,12-3.1,24-4.7,36-302.9-31.5-607.3-44-911.7-37.3,.2-11.1,.3-16.7,.5-27.8Z" fill="#e6332a"/><path d="M1618.2,204.1c-285.1-24.1-571.3-31.4-857.3-21.6,0,12.7,0,25.4,0,38.1,284.4-5.9,568.8,5.1,851.9,32.9,1.8-16.5,3.6-32.9,5.4-49.4Z" fill="#e6332a"/><path d="M1813.4,101.4c-235.3-18.7-471.2-26.1-707.2-22.2-.5,10.4-1,20.8-1.5,31.2,234.9-1.7,469.7,7.9,703.7,28.7,1.6-12.6,3.3-25.2,4.9-37.8Z" fill="#e6332a"/></g><g><path d="M1071.9,351c-188.1-12-376.5-16.6-564.9-13.8,.3,8.4,.4,12.6,.7,21,187.9-1.3,375.7,4.9,563.1,18.5,.4-10.3,.7-15.4,1.1-25.7Z" fill="#e94e1b"/><path d="M227.6,311.2c251.8-17.9,504.2-22.5,756.5-13.7-.3,9.8-.5,14.6-.8,24.4-251.4-10.8-503.2-8.3-754.3,7.5-.6-7.3-.8-10.9-1.4-18.2Z" fill="#e94e1b"/><path d="M837.9,241.4c-235.1,1-469.9,13.5-703.8,37.4,.9,9.8,1.3,14.7,2.2,24.4,233.1-21.2,467.1-31,701.2-29.4,.1-10.8,.3-21.6,.4-32.5Z" fill="#e94e1b"/><path d="M324.9,188.7c251.1-26.3,503.3-39.5,755.8-39.6-.4,9.8-.6,14.7-1.1,24.5-251.6-1.8-503.1,9.4-753.6,33.8-.4-7.4-.7-11.2-1.1-18.6Z" fill="#e94e1b"/><path d="M929.9,189c-236.7,2.1-473.1,15.7-708.5,41,.8,10.2,1.2,15.3,1.9,25.5,234.6-22.5,470-33.5,705.7-33,.3-11.2,.5-22.3,.8-33.5Z" fill="#e94e1b"/><path d="M1082.5,107.5c-194.4,2.6-388.6,12.8-582.3,30.8,.3,8.4,.4,12.6,.7,21,193.1-16.4,386.7-25,580.4-26.1,.4-10.3,.7-15.4,1.1-25.7Z" fill="#e94e1b"/></g><g><path d="M720.1,279c-150.5,1.2-300.8,7-450.9,17.6,.4,6,.6,9,1,15,149.8-9.5,299.8-14.4,449.9-14.6,0-7.2,0-10.8,0-18Z" fill="#f39200"/><path d="M46.3,289.4c199.9-22.9,400.7-37.5,601.8-43.6,0,6.9,.1,10.3,.2,17.2-200.7,4.9-401.1,18.1-600.7,39.7-.6-5.3-.8-8-1.4-13.3Z" fill="#f39200"/><path d="M530.1,213.3c-186.8,11.5-373.1,30.2-558.5,56,.8,7.2,1.3,10.7,2.1,17.9,185-24.1,370.8-41.1,557.1-50.9-.3-9.2-.4-13.8-.7-23Z" fill="#f39200"/><path d="M121.4,196.7c198.5-28,398-47.9,598.2-59.5,0,6.9,0,10.3,0,17.2-199.7,10.4-398.8,29-597,55.8-.5-5.4-.7-8.1-1.2-13.5Z" fill="#f39200"/><path d="M601.4,172.1c-187.8,12.2-375,31.6-561.3,58.3,.8,7.4,1.2,11.1,2,18.5,185.9-24.9,372.6-42.7,559.8-53.2-.2-9.4-.3-14.2-.5-23.6Z" fill="#f39200"/><path d="M719.5,108c-153.9,10.5-307.3,25.8-460.2,45.9,.4,6,.6,9,1,15,152.6-19.1,305.7-33.4,459.2-42.9,0-7.2,0-10.8,0-18Z" fill="#f39200"/></g></svg>