<svg xmlns="http://www.w3.org/2000/svg" id="Capa_1" width="1920" height="1080" viewBox="0 0 1920 1080"><g><rect x="645.1" y="115.9" width="673.8" height="29.1" transform="translate(1946.8 -94.4) rotate(159.3)" fill="#be1622"/><rect x="309.8" y="140.3" width="896.6" height="28.4" transform="translate(1521.8 31.3) rotate(159.3)" fill="#be1622"/><rect x="191.5" y="129.6" width="829.2" height="39.8" transform="translate(1225.9 75.2) rotate(159.3)" fill="#be1622"/><rect x="364.8" y="-61.6" width="879.7" height="27.7" transform="translate(1540.6 -376.7) rotate(159.3)" fill="#be1622"/><rect x="269.1" y="33.3" width="829.2" height="39.8" transform="translate(1342.1 -138.7) rotate(159.3)" fill="#be1622"/><rect x="547.7" y="-142" width="673.8" height="29.1" transform="translate(1667.1 -559.3) rotate(159.3)" fill="#be1622"/></g><g><rect x="706.8" y="80.5" width="673.8" height="29.1" transform="translate(2053.6 -184.9) rotate(159.3)" fill="#e6332a"/><rect x="371.4" y="104.8" width="896.6" height="28.4" transform="translate(1628.5 -59.2) rotate(159.3)" fill="#e6332a"/><rect x="253.1" y="94.2" width="829.2" height="39.8" transform="translate(1332.6 -15.2) rotate(159.3)" fill="#e6332a"/><rect x="426.4" y="-97.1" width="879.7" height="27.7" transform="translate(1647.3 -467.2) rotate(159.3)" fill="#e6332a"/><rect x="330.8" y="-2.2" width="829.2" height="39.8" transform="translate(1448.9 -229.1) rotate(159.3)" fill="#e6332a"/></g><g><rect x="159.6" y="286.2" width="558.4" height="24.1" transform="translate(954.7 422.2) rotate(159.3)" fill="#e94e1b"/><rect x="-118.3" y="306.4" width="743" height="23.6" transform="translate(602.4 526.4) rotate(159.3)" fill="#e94e1b"/><rect x="-216.4" y="297.5" width="687.2" height="33" transform="translate(357.2 562.8) rotate(159.3)" fill="#e94e1b"/><rect x="-72.7" y="139" width="729.1" height="23" transform="translate(618 188.2) rotate(159.3)" fill="#e94e1b"/><rect x="-152" y="217.7" width="687.2" height="33" transform="translate(453.6 385.5) rotate(159.3)" fill="#e94e1b"/><rect x="78.8" y="72.4" width="558.4" height="24.1" transform="translate(722.9 36.9) rotate(159.3)" fill="#e94e1b"/></g><g><rect x="-75.7" y="331.1" width="442" height="19.1" transform="translate(401.6 608) rotate(159.3)" fill="#f39200"/><rect x="-295.7" y="347.1" width="588.1" height="18.7" transform="translate(122.8 690.5) rotate(159.3)" fill="#f39200"/><rect x="-373.3" y="340.1" width="543.9" height="26.1" transform="translate(-71.3 719.3) rotate(159.3)" fill="#f39200"/><rect x="-259.6" y="214.6" width="577.1" height="18.2" transform="translate(135.1 422.8) rotate(159.3)" fill="#f39200"/><rect x="-322.4" y="276.9" width="543.9" height="26.1" transform="translate(4.9 579) rotate(159.3)" fill="#f39200"/><rect x="-139.6" y="161.9" width="442" height="19.1" transform="translate(218.1 303.1) rotate(159.3)" fill="#f39200"/></g></svg>