<?xml version="1.0" encoding="UTF-8"?><svg id="Capa_1" xmlns="http://www.w3.org/2000/svg" width="886.1" height="540" viewBox="0 0 886.1 540"><path d="M-198.4-52.5c2.2-6.5,4.3-12.9,6.5-19.4,1.5-1.4,3.1-1.1,4.8-.8,16.7,3.5,33.3,7.3,50,11,21.1,4.8,42.1,9.8,63.2,14.9,13.2,3.2,26.3,6.7,39.5,10,14.9,3.8,29.8,7.8,44.6,11.6,11.8,3,23.5,6.4,35.3,9.6C62.5-10.7,79.4-5.6,96.6-1c8.6,2.3,17,5,25.5,7.7,14.7,4.6,29.5,8.9,44.1,13.5,42.4,13.2,84.5,27.2,126.4,41.7,18.3,6.3,36.7,12.8,54.8,19.5,3.1,1.1,5.8-1.3,8.6-.1,9,3.1,18.2,5.4,26.8,9.6,4.4,2.2,5.3,1.7,8-3,.9-1.5,1.7-3.1,3.2-4.1,1.9-.7,3.5,.3,5.3,.6,17.7,6.4,35.2,13.4,52.8,20.2,11.9,4.6,23.7,9.4,35.6,14.1,10.8,4.3,21.6,8.8,32.3,13.2,9.2,3.9,18.5,7.5,27.6,11.5,15.3,6.6,30.6,12.9,45.8,19.7,15,6.6,29.9,13.3,44.8,20,23.7,10.6,47.1,21.7,70.6,32.8,35.9,17,71.4,34.8,106.7,53,4.5,2.3,8.8,5.2,13.9,6.2-2.9-3.5-7.3-4.5-10.6-7.3-3.3-5.4-9.2-6.1-14.2-8.4-1.9-.9-3.7-1.9-5.2-3.4-2-1.9-1.4-4.7,1.2-6,.5-.3,0,.3,.4-.1,5.3-5.1,9.5-2.6,13.7,1.5,2.2,2.2,5.5,2.6,8.2,3.8,4.8,2,9.4,4.7,14.8,5.2,7.5,3,14.4,7.1,21.5,10.9,41.7,22.2,82.8,45.4,123.5,69.6,34.5,20.6,68.7,41.8,102.3,63.9,37.2,24.4,73.8,49.6,109.6,75.9,1.6,1.2,3.2,2.2,4.1,4.2-19.1,57-38.2,114.1-57.4,171.3-55-18.4-110-36.8-165-55.3-7.9-4.4-15.4-9.3-23-14.2-1-.7-2.1-1.3-3.1-2.1-2.6-2.2-2.4-3.5,.8-4.9,2.1-.9,4.4-.9,6.6-2.1-.2-1.6-1.6-1.9-2.5-2.5-33.7-21.7-67.7-42.9-102.2-63.1-43.2-25.3-86.9-49.6-131.1-72.8-1.5-.8-3.1-1.3-3.7-3.2,0-.5,0-1,.3-1.4,1-1,2.3-1.1,3.5-1,11.2,.6,22.3,1.3,33.5,2.2,.8,0,1.6,.4,2.4,.7,20.6,10.7,40.8,22.2,61,33.5,22.7,12.7,45.1,25.9,67.4,39.3,31.6,19,62.8,38.7,93.7,58.9,3.3,2.1,4,1.8,4.6-2.2,1.3-8,2.4-16.1,3.6-24.2,.6-4.3-.8-6.8-4.1-9-22.4-14.4-44.8-28.6-67.5-42.5-40.4-24.6-81.4-48.2-122.9-70.8-43.6-23.7-87.6-46.5-132.2-68.2-29.8-14.5-59.9-28.6-90-42.4-5.7-2.6-11.5-4.9-17.1-7.7-4.8-2.3-9.9-2.5-15.1-1.7-7.8,1.2-15.3,.9-22.4-2.7-8.4-4-17-7.4-25.5-11.1-13.6-5.9-27.3-11.5-40.9-17.3-9.4-4-19.2-7.1-28.3-11.9-2.1-1.4-3.5-3.5-4.2-6.1,0-.5,0-1,.1-1.5,.2-.2,.4-.3,.6-.5,1.2-.3,2.2,.3,3.2,.7,16.4,6.1,32.3,13.1,48.5,19.6,.9,.4,1.8,.9,2.8,.8,1.7-.1,3-1.1,3.6-2.7,.7-2.1-1.2-2.3-2.3-2.8-13.7-5.3-27-11.6-40.8-16.6-2.5-.9-4.7-2.3-7.1-3.5-1.5-1.7-4.5-1.4-5.1-4.3-.1-.6-.9-.4-1.4-.2-2.2,.7-4-.5-5.1-2-1.2-1.7-2.9-2.4-4.5-3.6-.6-.5-1.5-1-1.4-1.9,.2-1.2,1.3-1.4,2.2-1.7,1.9-.8,4.1,1.3,6-.7,.3-.3,.7-.4,1.1-.5,2.7,.3,5.5,.6,7.8-1.7,.4-.2,.9-.2,1.4-.2,7.3,1.3,13.8,5.1,20.6,7.8,10.7,4.2,21.3,8.7,31.9,13.2,11.3,4.7,22.4,9.6,33.6,14.4,13.8,5.9,27.4,12,41.1,18.1,19.4,8.7,38.7,17.4,57.9,26.4,30.5,14.3,60.9,29,91,44.2,24.3,12.2,48.5,24.8,72.5,37.7,29.9,16,59.6,32.4,88.9,49.5,.9,.5,1.8,1.3,3.3,1.2,.3-3.4-.8-6.4-1.2-9.5-1-9-2.8-17.9-4-26.9-.5-3.6-2.3-6-5.3-7.7-31.9-17.9-64-35.4-96.4-52.2-24.8-12.9-49.7-25.5-74.7-37.8-11.8-5.8-23.9-11.2-35.6-17.3-11.3-5.9-22.8-11.4-34.3-16.7-8.9-4.1-17.9-8.2-26.8-12.2-9.8-4.4-19.7-8.8-29.5-13.3-7.2-3.2-14.5-6.3-21.7-9.4-12-5.3-24.2-10.2-36.1-15.7-3.5-1.6-7.4-2.4-10.9-4-9.5-4.2-19.2-8.1-28.8-12-12.7-5.2-25.5-10.1-38.2-15.4-5.5-2.3-11.1-4.5-16.6-6.6-16.9-6.2-33.6-12.9-50.5-19.2-20.8-7.7-41.7-15.1-62.5-22.8-38.1-14.2-77-25.9-115.3-39.4-20-7.1-40.5-12.5-60.7-19.1-9.3-3-18.8-5.7-28.2-8.8-2.9-1.3-6.1-2-9-3.2-1.5-.6-3.4-1.2-2.2-3.7,5.3-1.1,10.1,1.3,14.8,2.7,10.2,2.9,20.3,6.4,30.6,9.1,4.7,1.2,4.6,1.4,6.4-3.6,.4-1.1,.8-2.2,1.9-2.9,5.9,0,11.5,1.9,16.9,3.7,25.2,8.7,50.9,15.6,76.1,24.3,14.5,5,29.4,9.4,43.7,14.8,17.9,6.8,36.2,12.4,54.1,19.1,17.9,6.7,36,12.9,53.8,19.9,20.8,8.2,41.7,16,62.4,24.3,15.8,6.4,31.7,12.6,47.4,19.1,16.4,6.7,32.8,13.4,49,20.7,4,1.8,8.2,3.3,12.2,5.3,7.8,3.9,16.1,1.7,24.3,1.5,.5,0,1,0,1.6,0,.8,0,1.5,0,2.3,0,8.3,2,15.7,6.1,23.4,9.6,18.8,8.5,37.6,17.1,56.3,26,24.9,11.7,49.6,23.7,74.2,36,40.6,20.3,80.9,41.3,120.7,63.3,15.6,8.6,31.1,17.4,46.5,26.2,.9,.5,1.9,1.7,3,1.1,1.3-.8,.7-2.4,.6-3.6-1.1-12.7-2.2-25.4-3.8-38.1-.5-3.7-2.6-5.5-5.4-7.1-14.9-8.4-29.9-16.6-45-24.7-26.2-14.1-52.5-28-79.1-41.3-32.3-16.2-64.7-32-97.4-47.4-21.9-10.3-43.8-20.2-65.9-30.1-17-7.6-34-14.9-51.1-22.2-16.6-7.1-33.2-14.1-49.8-21-10.6-4.4-21.3-8.6-32-13-18.5-7.5-37.2-14.4-55.6-22.1-6.5-2.7-13.2-5.1-19.9-7.4-12.4-4.4-24.5-9.8-37.1-13.7-2.6-.8-5.1-1.1-7.8-.3-5.7,1.5-11.5,2.7-17.3,4.1-.5,.1-1,.1-1.6,0-.8,0-1.5-.3-2.3-.5-9.6-2.7-18.7-6.8-28.2-10.1-26.2-9.1-52.6-17.5-78.8-26.6-24.2-8.4-48.9-15.4-73.3-23.3-17.1-5.6-34.4-10.6-51.7-15.6-18.6-5.3-37.3-10.8-55.9-15.9C19.5,.9-3.6-5.3-26.8-11.2c-26.2-6.7-52.4-13.1-78.7-19.3-26.7-6.3-53.5-12.1-80.3-18.2-4.3-1-8.9-.7-12.5-3.8Z" fill="#063"/><path d="M-232.4-98.5c2.2-6.5,4.3-12.9,6.5-19.4,1.5-1.4,3.1-1.1,4.8-.8,16.7,3.5,33.3,7.3,50,11,21.1,4.8,42.1,9.8,63.2,14.9,13.2,3.2,26.3,6.7,39.5,10,14.9,3.8,29.8,7.8,44.6,11.6,11.8,3,23.5,6.4,35.3,9.6,17.1,4.7,34,9.9,51.2,14.5,8.6,2.3,17,5,25.5,7.7,14.7,4.6,29.5,8.9,44.1,13.5C174.6-12.6,216.7,1.3,258.6,15.9c18.3,6.3,36.7,12.8,54.8,19.5,3.1,1.1,5.8-1.3,8.6-.1,9,3.1,18.2,5.4,26.8,9.6,4.4,2.2,5.3,1.7,8-3,.9-1.5,1.7-3.1,3.2-4.1,1.9-.7,3.5,.3,5.3,.6,17.7,6.4,35.2,13.4,52.8,20.2,11.9,4.6,23.7,9.4,35.6,14.1,10.8,4.3,21.6,8.8,32.3,13.2,9.2,3.9,18.5,7.5,27.6,11.5,15.3,6.6,30.6,12.9,45.8,19.7,15,6.6,29.9,13.3,44.8,20,23.7,10.6,47.1,21.7,70.6,32.8,35.9,17,71.4,34.8,106.7,53,4.5,2.3,8.8,5.2,13.9,6.2-2.9-3.5-7.3-4.5-10.6-7.3-3.3-5.4-9.2-6.1-14.2-8.4-1.9-.9-3.7-1.9-5.2-3.4-2-1.9-1.4-4.7,1.2-6,.5-.3,0,.3,.4-.1,5.3-5.1,9.5-2.6,13.7,1.5,2.2,2.2,5.5,2.6,8.2,3.8,4.8,2,9.4,4.7,14.8,5.2,7.5,3,14.4,7.1,21.5,10.9,41.7,22.2,82.8,45.4,123.5,69.6,34.5,20.6,68.7,41.8,102.3,63.9,37.2,24.4,73.8,49.6,109.6,75.9,1.6,1.2,3.2,2.2,4.1,4.2-19.1,57-38.2,114.1-57.4,171.3-55-18.4-110-36.8-165-55.3-7.9-4.4-15.4-9.3-23-14.2-1-.7-2.1-1.3-3.1-2.1-2.6-2.2-2.4-3.5,.8-4.9,2.1-.9,4.4-.9,6.6-2.1-.2-1.6-1.6-1.9-2.5-2.5-33.7-21.7-67.7-42.9-102.2-63.1-43.2-25.3-86.9-49.6-131.1-72.8-1.5-.8-3.1-1.3-3.7-3.2,0-.5,0-1,.3-1.4,1-1,2.3-1.1,3.5-1,11.2,.6,22.3,1.3,33.5,2.2,.8,0,1.6,.4,2.4,.7,20.6,10.7,40.8,22.2,61,33.5,22.7,12.7,45.1,25.9,67.4,39.3,31.6,19,62.8,38.7,93.7,58.9,3.3,2.1,4,1.8,4.6-2.2,1.3-8,2.4-16.1,3.6-24.2,.6-4.3-.8-6.8-4.1-9-22.4-14.4-44.8-28.6-67.5-42.5-40.4-24.6-81.4-48.2-122.9-70.8-43.6-23.7-87.6-46.5-132.2-68.2-29.8-14.5-59.9-28.6-90-42.4-5.7-2.6-11.5-4.9-17.1-7.7-4.8-2.3-9.9-2.5-15.1-1.7-7.8,1.2-15.3,.9-22.4-2.7-8.4-4-17-7.4-25.5-11.1-13.6-5.9-27.3-11.5-40.9-17.3-9.4-4-19.2-7.1-28.3-11.9-2.1-1.4-3.5-3.5-4.2-6.1,0-.5,0-1,.1-1.5,.2-.2,.4-.3,.6-.5,1.2-.3,2.2,.3,3.2,.7,16.4,6.1,32.3,13.1,48.5,19.6,.9,.4,1.8,.9,2.8,.8,1.7-.1,3-1.1,3.6-2.7,.7-2.1-1.2-2.3-2.3-2.8-13.7-5.3-27-11.6-40.8-16.6-2.5-.9-4.7-2.3-7.1-3.5-1.5-1.7-4.5-1.4-5.1-4.3-.1-.6-.9-.4-1.4-.2-2.2,.7-4-.5-5.1-2-1.2-1.7-2.9-2.4-4.5-3.6-.6-.5-1.5-1-1.4-1.9,.2-1.2,1.3-1.4,2.2-1.7,1.9-.8,4.1,1.3,6-.7,.3-.3,.7-.4,1.1-.5,2.7,.3,5.5,.6,7.8-1.7,.4-.2,.9-.2,1.4-.2,7.3,1.3,13.8,5.1,20.6,7.8,10.7,4.2,21.3,8.7,31.9,13.2,11.3,4.7,22.4,9.6,33.6,14.4,13.8,5.9,27.4,12,41.1,18.1,19.4,8.7,38.7,17.4,57.9,26.4,30.5,14.3,60.9,29,91,44.2,24.3,12.2,48.5,24.8,72.5,37.7,29.9,16,59.6,32.4,88.9,49.5,.9,.5,1.8,1.3,3.3,1.2,.3-3.4-.8-6.4-1.2-9.5-1-9-2.8-17.9-4-26.9-.5-3.6-2.3-6-5.3-7.7-31.9-17.9-64-35.4-96.4-52.2-24.8-12.9-49.7-25.5-74.7-37.8-11.8-5.8-23.9-11.2-35.6-17.3-11.3-5.9-22.8-11.4-34.3-16.7-8.9-4.1-17.9-8.2-26.8-12.2-9.8-4.4-19.7-8.8-29.5-13.3-7.2-3.2-14.5-6.3-21.7-9.4-12-5.3-24.2-10.2-36.1-15.7-3.5-1.6-7.4-2.4-10.9-4-9.5-4.2-19.2-8.1-28.8-12-12.7-5.2-25.5-10.1-38.2-15.4-5.5-2.3-11.1-4.5-16.6-6.6-16.9-6.2-33.6-12.9-50.5-19.2-20.8-7.7-41.7-15.1-62.5-22.8-38.1-14.2-77-25.9-115.3-39.4-20-7.1-40.5-12.5-60.7-19.1-9.3-3-18.8-5.7-28.2-8.8-2.9-1.3-6.1-2-9-3.2-1.5-.6-3.4-1.2-2.2-3.7,5.3-1.1,10.1,1.3,14.8,2.7,10.2,2.9,20.3,6.4,30.6,9.1,4.7,1.2,4.6,1.4,6.4-3.6,.4-1.1,.8-2.2,1.9-2.9,5.9,0,11.5,1.9,16.9,3.7,25.2,8.7,50.9,15.6,76.1,24.3,14.5,5,29.4,9.4,43.7,14.8,17.9,6.8,36.2,12.4,54.1,19.1,17.9,6.7,36,12.9,53.8,19.9,20.8,8.2,41.7,16,62.4,24.3,15.8,6.4,31.7,12.6,47.4,19.1,16.4,6.7,32.8,13.4,49,20.7,4,1.8,8.2,3.3,12.2,5.3,7.8,3.9,16.1,1.7,24.3,1.5,.5,0,1,0,1.6,0,.8,0,1.5,0,2.3,0,8.3,2,15.7,6.1,23.4,9.6,18.8,8.5,37.6,17.1,56.3,26,24.9,11.7,49.6,23.7,74.2,36,40.6,20.3,80.9,41.3,120.7,63.3,15.6,8.6,31.1,17.4,46.5,26.2,.9,.5,1.9,1.7,3,1.1,1.3-.8,.7-2.4,.6-3.6-1.1-12.7-2.2-25.4-3.8-38.1-.5-3.7-2.6-5.5-5.4-7.1-14.9-8.4-29.9-16.6-45-24.7-26.2-14.1-52.5-28-79.1-41.3-32.3-16.2-64.7-32-97.4-47.4-21.9-10.3-43.8-20.2-65.9-30.1-17-7.6-34-14.9-51.1-22.2-16.6-7.1-33.2-14.1-49.8-21-10.6-4.4-21.3-8.6-32-13-18.5-7.5-37.2-14.4-55.6-22.1-6.5-2.7-13.2-5.1-19.9-7.4-12.4-4.4-24.5-9.8-37.1-13.7-2.6-.8-5.1-1.1-7.8-.3-5.7,1.5-11.5,2.7-17.3,4.1-.5,.1-1,.1-1.6,0-.8,0-1.5-.3-2.3-.5-9.6-2.7-18.7-6.8-28.2-10.1-26.2-9.1-52.6-17.5-78.8-26.6C165.3,7.7,140.7,.7,116.3-7.2c-17.1-5.6-34.4-10.6-51.7-15.6-18.6-5.3-37.3-10.8-55.9-15.9-23.1-6.4-46.2-12.6-69.4-18.5-26.2-6.7-52.4-13.1-78.7-19.3-26.7-6.3-53.5-12.1-80.3-18.2-4.3-1-8.9-.7-12.5-3.8Z" fill="#2fac66"/><path d="M0-17.6c1.7-5,3.3-10,5-15,1.1-1.1,2.4-.9,3.7-.6,13,2.8,26,5.7,38.9,8.6,16.4,3.7,32.8,7.6,49.2,11.7,10.3,2.5,20.5,5.2,30.8,7.8,11.6,2.9,23.2,6.1,34.8,9.1,9.2,2.4,18.3,5,27.5,7.5,13.3,3.7,26.5,7.7,39.9,11.3,6.7,1.8,13.3,3.9,19.8,6,11.4,3.6,22.9,6.9,34.4,10.5,33,10.3,65.8,21.2,98.5,32.5,14.3,4.9,28.6,9.9,42.7,15.2,2.4,.9,4.5-1,6.7,0,7,2.4,14.2,4.2,20.9,7.5,3.5,1.7,4.1,1.3,6.2-2.3,.7-1.2,1.3-2.4,2.5-3.1,1.5-.5,2.8,.2,4.1,.5,13.8,5,27.4,10.4,41.1,15.7,9.3,3.6,18.5,7.3,27.7,11,8.4,3.3,16.8,6.8,25.2,10.3,7.2,3,14.4,5.9,21.5,8.9,11.9,5.1,23.9,10.1,35.7,15.3,11.7,5.1,23.3,10.3,34.9,15.5,18.5,8.2,36.7,16.9,55,25.5,28,13.2,55.6,27.1,83.2,41.2,3.5,1.8,6.8,4,10.8,4.8-2.3-2.7-5.7-3.5-8.3-5.7-2.6-4.2-7.2-4.7-11.1-6.5-1.5-.7-2.9-1.5-4.1-2.6-1.6-1.5-1.1-3.6,.9-4.6,.4-.2,0,.2,.3,0,4.1-3.9,7.4-2,10.7,1.2,1.7,1.7,4.3,2,6.4,2.9,3.8,1.5,7.3,3.7,11.5,4,5.8,2.3,11.2,5.6,16.8,8.5,32.5,17.3,64.6,35.3,96.3,54,26.9,16,53.5,32.4,79.8,49.6,29,18.9,57.5,38.4,85.5,58.9,1.2,.9,2.5,1.7,3.2,3.2-14.7,44-29.5,88-44.3,132.1-42.8-14.4-85.7-28.7-128.5-43.1-6.1-3.4-12-7.2-17.9-11-.8-.5-1.7-1-2.4-1.7-2-1.7-1.9-2.7,.6-3.8,1.6-.7,3.4-.7,5.1-1.6-.2-1.2-1.2-1.5-2-1.9-26.3-16.8-52.8-33.2-79.7-49-33.6-19.6-67.7-38.5-102.2-56.5-1.1-.6-2.4-1-2.9-2.4,0-.4,0-.8,.2-1.1,.8-.8,1.8-.8,2.8-.8,8.7,.5,17.4,1,26.1,1.8,.6,0,1.3,.3,1.8,.5,16.1,8.3,31.8,17.2,47.6,26,17.7,9.9,35.2,20.1,52.5,30.5,24.6,14.8,49,30,73.1,45.7,2.5,1.6,3.1,1.4,3.6-1.7,1-6.2,1.9-12.4,2.7-18.6,.5-3.3-.6-5.3-3.2-6.9-17.4-11.2-35-22.2-52.7-32.9-31.5-19.1-63.5-37.4-95.8-55-34-18.4-68.3-36.1-103.1-52.9-23.2-11.3-46.7-22.2-70.1-32.9-4.4-2-8.9-3.8-13.3-6-3.7-1.8-7.7-1.9-11.8-1.4-6.1,.9-11.9,.6-17.5-2.1-6.5-3.1-13.3-5.7-19.9-8.6-10.6-4.6-21.3-8.9-31.9-13.4-7.3-3.1-15-5.5-22-9.3-1.7-1.1-2.7-2.7-3.3-4.7,0-.4,0-.8,.1-1.2,.2-.1,.3-.2,.5-.4,.9-.2,1.7,.2,2.5,.5,12.7,4.8,25.2,10.2,37.8,15.3,.7,.3,1.4,.7,2.2,.6,1.3,0,2.4-.9,2.8-2.1,.6-1.7-.9-1.8-1.8-2.1-10.7-4.1-21-9-31.8-12.9-1.9-.7-3.7-1.8-5.5-2.7-1.1-1.3-3.5-1.1-4-3.3-.1-.5-.7-.3-1.1-.1-1.7,.6-3.1-.4-3.9-1.5-1-1.3-2.3-1.9-3.5-2.8-.5-.4-1.2-.7-1.1-1.5,.1-1,1-1,1.7-1.3,1.5-.6,3.2,1,4.6-.5,.3-.2,.5-.3,.8-.4,2.1,.3,4.2,.5,6-1.3,.3-.1,.7-.2,1.1-.2,5.7,1.1,10.7,4,16,6.1,8.3,3.3,16.6,6.8,24.8,10.2,8.8,3.7,17.5,7.4,26.2,11.2,10.7,4.6,21.4,9.3,32,14.1,15.1,6.7,30.2,13.5,45.1,20.5,23.8,11.1,47.5,22.5,71,34.3,19,9.5,37.8,19.3,56.5,29.3,23.3,12.4,46.4,25.2,69.3,38.4,.7,.4,1.4,1,2.6,1,.2-2.6-.6-4.9-.9-7.4-.8-7-2.2-13.8-3.2-20.8-.4-2.8-1.8-4.6-4.2-5.9-24.9-13.9-49.9-27.4-75.2-40.5-19.3-10-38.7-19.8-58.3-29.3-9.2-4.5-18.6-8.7-27.7-13.4-8.8-4.6-17.8-8.9-26.8-13-7-3.2-13.9-6.3-20.9-9.5-7.7-3.4-15.3-6.9-23-10.3-5.6-2.5-11.3-4.9-16.9-7.3-9.4-4.1-18.9-8-28.2-12.2-2.8-1.3-5.8-1.9-8.5-3.1-7.4-3.2-14.9-6.3-22.4-9.4-9.9-4.1-19.9-7.9-29.7-12-4.3-1.8-8.6-3.5-13-5.1-13.2-4.8-26.2-10-39.4-14.9-16.2-6-32.5-11.7-48.7-17.8-29.7-11.1-60-20.2-89.9-30.7-15.6-5.5-31.6-9.8-47.3-14.9-7.3-2.4-14.7-4.4-21.9-6.8-2.3-1-4.7-1.5-7-2.5-1.2-.5-2.6-.9-1.8-2.9,4.1-.9,7.8,1,11.6,2.1,8,2.3,15.8,5,23.8,7.1,3.6,1,3.6,1.1,5-2.8,.3-.9,.7-1.7,1.5-2.2,4.6,0,9,1.5,13.2,2.9,19.6,6.8,39.7,12.2,59.3,19,11.3,3.9,22.9,7.3,34.1,11.5,13.9,5.3,28.2,9.6,42.2,14.9,14,5.2,28.1,10,41.9,15.5,16.2,6.3,32.5,12.4,48.6,18.9,12.3,4.9,24.7,9.8,37,14.8,12.8,5.2,25.6,10.5,38.2,16.1,3.2,1.4,6.4,2.6,9.5,4.1,6.1,3.1,12.6,1.4,18.9,1.2,.4,0,.8,0,1.2,0,.6,0,1.2,0,1.8,0,6.5,1.6,12.3,4.8,18.3,7.5,14.7,6.6,29.3,13.3,43.9,20.2,19.4,9.1,38.7,18.4,57.8,27.9,31.7,15.8,63.1,32.1,94.1,49.1,12.2,6.7,24.2,13.5,36.3,20.3,.7,.4,1.5,1.3,2.3,.9,1-.6,.6-1.9,.5-2.8-.9-9.8-1.8-19.6-3.1-29.4-.4-2.8-2.1-4.2-4.2-5.5-11.6-6.5-23.3-12.9-35.1-19.2-20.4-11-40.9-21.7-61.6-32.1-25.2-12.6-50.4-24.9-75.9-36.8-17-8-34.2-15.7-51.3-23.4-13.2-5.9-26.5-11.6-39.8-17.3-12.9-5.5-25.8-11-38.8-16.3-8.3-3.4-16.6-6.7-24.9-10.1-14.4-5.8-29-11.2-43.3-17.2-5.1-2.1-10.3-3.9-15.5-5.8-9.7-3.5-19.1-7.6-28.9-10.6-2-.6-4-.8-6.1-.3-4.5,1.2-9,2.1-13.5,3.1-.4,0-.8,.1-1.2,0-.6,0-1.2-.2-1.8-.4-7.5-2.1-14.6-5.3-21.9-7.9-20.4-7.1-41-13.6-61.4-20.7-18.9-6.5-38.1-12-57.1-18.2-13.3-4.3-26.8-8.3-40.3-12.1-14.5-4.2-29-8.4-43.6-12.4-18-5-36-9.9-54.1-14.5C113.2,9.4,92.8,4.4,72.3-.4,51.5-5.3,30.6-9.9,9.8-14.6c-3.3-.7-6.9-.6-9.8-3Z" fill="#95c11f"/></svg>